<svg xmlns="http://www.w3.org/2000/svg" width="65" height="65" viewBox="0 0 65 65">
    <g data-name="Group 18340" transform="translate(-1326 -462)">
        <rect data-name="Rectangle 172" width="65" height="65" rx="32.5" transform="translate(1326 462)" style="fill:#ea5d6e"/>
        <g data-name="Group 23">
            <path data-name="Path 32" d="M61.17 164.268a.849.849 0 0 1-.6-.25l-10.8-10.8a.853.853 0 0 1 1.206-1.206L61.17 162.21l10.192-10.192a.853.853 0 1 1 1.206 1.206l-10.8 10.8a.85.85 0 0 1-.598.244z" transform="translate(1297.017 346.563)" style="fill:#fff"/>
            <path data-name="Path 33" d="M17.6 99.142h-.036a.851.851 0 0 1-.756-.537l-4.123-10.359-2.572 5.49a.853.853 0 0 1-.772.491H.853a.853.853 0 0 1 0-1.706H8.8l3.178-6.784a.865.865 0 0 1 .8-.49.853.853 0 0 1 .767.537l4.146 10.421 3.8-7.6a.852.852 0 0 1 .763-.471.852.852 0 0 1 .762.476l1.928 3.915h12.577a.853.853 0 1 1 0 1.705H24.415a.852.852 0 0 1-.765-.476l-1.4-2.85-3.885 7.77a.853.853 0 0 1-.765.468z" transform="translate(1339 402.958)" style="fill:#fff"/>
            <path data-name="Path 34" d="M2.44 34.056a.851.851 0 0 1-.705-.372 9.9 9.9 0 0 1 15.181-12.572L19.2 23.4l2.285-2.285a9.9 9.9 0 0 1 15.182 12.569.853.853 0 0 1-1.409-.961 8.193 8.193 0 0 0-12.567-10.4L19.8 25.206a.878.878 0 0 1-1.206 0l-2.887-2.888a8.194 8.194 0 0 0-12.567 10.4.853.853 0 0 1-.7 1.333z" transform="translate(1338.986 459.783)" style="fill:#fff"/>
        </g>
    </g>
</svg>
