<svg xmlns="http://www.w3.org/2000/svg" width="64.558" height="86.133" viewBox="0 0 64.558 86.133">
    <g data-name="Group 18350" transform="translate(-1332.705 -2468)">
        <path d="M55.128 51.242H40.21v-2.866h4.044a5.316 5.316 0 0 0 5.31-5.31c0-5.571 3.224-9.578 6.637-13.82 3.091-3.842 6.287-7.814 6.841-13.015a12.2 12.2 0 0 0-2.486-9.3 12.207 12.207 0 0 0-7.11-4.1A3.968 3.968 0 0 0 49.648 0H48.3a3.961 3.961 0 1 0 0 7.922h1.348a3.967 3.967 0 0 0 3.693-2.531 9.562 9.562 0 0 1 5.265 3.154 9.611 9.611 0 0 1 1.921 7.419c-.475 4.463-3.3 7.977-6.3 11.7-3.3 4.1-6.708 8.34-7.147 14.141H30.723c-.439-5.8-3.845-10.037-7.147-14.141-2.994-3.721-5.821-7.236-6.3-11.7a9.61 9.61 0 0 1 1.924-7.42 9.563 9.563 0 0 1 5.265-3.154 3.966 3.966 0 0 0 3.693 2.531h1.348a3.961 3.961 0 1 0 0-7.922h-1.348a3.968 3.968 0 0 0-3.8 2.836 12.206 12.206 0 0 0-7.11 4.1 12.2 12.2 0 0 0-2.486 9.3c.554 5.2 3.75 9.173 6.841 13.015 3.413 4.242 6.637 8.249 6.637 13.82a5.316 5.316 0 0 0 5.31 5.31h4.13v2.866H23.928a8.006 8.006 0 1 0 0 2.528h13.754v14.914a17.446 17.446 0 1 0 17.446-17.446zm-5.48-45.848H48.3a1.433 1.433 0 1 1 0-2.865h1.348a1.433 1.433 0 1 1 0 2.865zm-21.49-2.866h1.348a1.433 1.433 0 1 1 0 2.865h-1.348a1.433 1.433 0 1 1 0-2.865zm2.917 41.8h15.656a2.784 2.784 0 0 1-2.477 1.517h-10.7a2.784 2.784 0 0 1-2.479-1.514zM16.022 57.984a5.478 5.478 0 1 1 5.329-6.742h-1.576a3.961 3.961 0 1 0 0 2.528h1.576a5.487 5.487 0 0 1-5.329 4.214zm1.433-5.478a1.433 1.433 0 1 1-1.433-1.433 1.434 1.434 0 0 1 1.433 1.433zM55.128 83.6A14.934 14.934 0 0 1 40.21 68.688V53.77h14.918a14.917 14.917 0 0 1 0 29.835z" transform="translate(1324.689 2468)" style="fill:#6f7071"/>
        <circle data-name="Ellipse 105" cx="2.5" cy="2.5" r="2.5" transform="translate(1338 2518)" style="fill:#ea5d6e"/>
        <circle data-name="Ellipse 106" cx="2.5" cy="2.5" r="2.5" transform="translate(1351 2469)" style="fill:#ea5d6e"/>
        <circle data-name="Ellipse 107" cx="2.5" cy="2.5" r="2.5" transform="translate(1371 2469)" style="fill:#ea5d6e"/>
    </g>
</svg>
