<svg xmlns="http://www.w3.org/2000/svg" width="71.963" height="67" viewBox="0 0 71.963 67">
    <path data-name="Path 12831" d="M73.722 71.519h-2.481V8.241A1.241 1.241 0 0 0 70 7H7.963a1.241 1.241 0 0 0-1.241 1.241v63.278H4.241a1.241 1.241 0 0 0 0 2.481h69.481a1.241 1.241 0 0 0 0-2.481zm-40.944 0V56.63h12.407v14.889zm14.889 0v-16.13a1.241 1.241 0 0 0-1.241-1.241H31.537a1.241 1.241 0 0 0-1.237 1.241v16.13H9.2V9.481h59.559v62.038z" style="fill:#6f7071" transform="translate(-3 -7)"/>
    <path data-name="Path 12832" d="M30.241 51.5A1.241 1.241 0 0 0 29 52.741v1.241a1.241 1.241 0 0 0 2.481 0v-1.241a1.241 1.241 0 0 0-1.24-1.241z" transform="translate(3.259 3.713)" style="fill:#6f7071"/>
    <path data-name="Path 12833" d="M34.241 51.5A1.241 1.241 0 0 0 33 52.741v1.241a1.241 1.241 0 0 0 2.481 0v-1.241a1.241 1.241 0 0 0-1.24-1.241z" transform="translate(4.222 3.713)" style="fill:#6f7071"/>
    <path data-name="Path 12834" d="M40.889 15.722h-3.722V12h-7.445v3.722H26v7.444h3.722v3.722h7.444v-3.721h3.722zm-2.481 4.963h-3.723v3.722H32.2v-3.722h-3.719V18.2H32.2v-3.719h2.481V18.2h3.722z" transform="translate(2.537 -5.796)" style="fill:#6f7071"/>
    <path data-name="Path 12835" d="M26.2 27h-4.959A1.241 1.241 0 0 0 20 28.241V33.2a1.241 1.241 0 0 0 1.241 1.241H26.2a1.241 1.241 0 0 0 1.244-1.241v-4.959A1.241 1.241 0 0 0 26.2 27zm-1.241 4.963h-2.478v-2.482h2.481z" transform="translate(1.093 -2.185)" style="fill:#ea5d6e"/>
    <path data-name="Path 12836" d="M44.2 27h-4.959A1.241 1.241 0 0 0 38 28.241V33.2a1.241 1.241 0 0 0 1.241 1.241H44.2a1.241 1.241 0 0 0 1.244-1.241v-4.959A1.241 1.241 0 0 0 44.2 27zm-1.241 4.963h-2.478v-2.482h2.481z" transform="translate(5.426 -2.185)" style="fill:#ea5d6e"/>
    <path data-name="Path 12837" d="M26.2 36h-4.959A1.241 1.241 0 0 0 20 37.241V42.2a1.241 1.241 0 0 0 1.241 1.241H26.2a1.241 1.241 0 0 0 1.244-1.241v-4.959A1.241 1.241 0 0 0 26.2 36zm-1.241 4.963h-2.478v-2.482h2.481z" transform="translate(1.093 -.019)" style="fill:#ea5d6e"/>
    <path data-name="Path 12838" d="M17.2 27h-4.959A1.241 1.241 0 0 0 11 28.241V33.2a1.241 1.241 0 0 0 1.241 1.241H17.2a1.241 1.241 0 0 0 1.244-1.241v-4.959A1.241 1.241 0 0 0 17.2 27zm-1.241 4.963h-2.478v-2.482h2.481z" transform="translate(-1.074 -2.185)" style="fill:#ea5d6e"/>
    <path data-name="Path 12839" d="M17.2 36h-4.959A1.241 1.241 0 0 0 11 37.241V42.2a1.241 1.241 0 0 0 1.241 1.241H17.2a1.241 1.241 0 0 0 1.244-1.241v-4.959A1.241 1.241 0 0 0 17.2 36zm-1.241 4.963h-2.478v-2.482h2.481z" transform="translate(-1.074 -.019)" style="fill:#ea5d6e"/>
    <path data-name="Path 12840" d="M44.2 36h-4.959A1.241 1.241 0 0 0 38 37.241V42.2a1.241 1.241 0 0 0 1.241 1.241H44.2a1.241 1.241 0 0 0 1.244-1.241v-4.959A1.241 1.241 0 0 0 44.2 36zm-1.241 4.963h-2.478v-2.482h2.481z" transform="translate(5.426 -.019)" style="fill:#ea5d6e"/>
    <path data-name="Path 12841" d="M53.2 27h-4.959A1.241 1.241 0 0 0 47 28.241V33.2a1.241 1.241 0 0 0 1.241 1.241H53.2a1.241 1.241 0 0 0 1.244-1.241v-4.959A1.241 1.241 0 0 0 53.2 27zm-1.241 4.963h-2.478v-2.482h2.481z" transform="translate(7.593 -2.185)" style="fill:#ea5d6e"/>
    <path data-name="Path 12842" d="M53.2 36h-4.959A1.241 1.241 0 0 0 47 37.241V42.2a1.241 1.241 0 0 0 1.241 1.241H53.2a1.241 1.241 0 0 0 1.244-1.241v-4.959A1.241 1.241 0 0 0 53.2 36zm-1.241 4.963h-2.478v-2.482h2.481z" transform="translate(7.593 -.019)" style="fill:#ea5d6e"/>
</svg>
