<svg xmlns="http://www.w3.org/2000/svg" width="43.933" height="59.192" viewBox="0 0 43.933 59.192">
    <path data-name="Path 12913" d="M7.9 4.954h6.88A3.558 3.558 0 0 0 18.327 8.5h8.56a3.559 3.559 0 0 0 3.551-3.547h6.873a6.28 6.28 0 0 1 6.263 6.263v41.12a6.28 6.28 0 0 1-6.263 6.264H7.9a6.28 6.28 0 0 1-6.263-6.263V11.216A6.28 6.28 0 0 1 7.9 4.954z" style="stroke:#333;fill:none;stroke-linecap:round;stroke-linejoin:round;stroke-miterlimit:10;stroke-width:2px" transform="translate(-.641 -.406)"/>
    <path data-name="Path 12914" d="M18.327 1.406h8.56a3.547 3.547 0 1 1 0 7.094h-8.56a3.547 3.547 0 1 1 0-7.094z" style="stroke:#333;fill:none;stroke-linecap:round;stroke-linejoin:round;stroke-miterlimit:10;stroke-width:2px" transform="translate(-.641 -.406)"/>
    <path data-name="Path 12915" d="M19.807 15.917h5.6v3.737h3.736v5.6h-3.736v3.736h-5.6v-3.737h-3.736v-5.6h3.736z" style="stroke:#d24350;fill:none;stroke-linecap:round;stroke-linejoin:round;stroke-miterlimit:10;stroke-width:2px" transform="translate(-.641 -.406)"/>
    <path data-name="Path 12916" d="M8.991 36.888H30.5" style="stroke:#333;fill:none;stroke-linecap:round;stroke-linejoin:round;stroke-miterlimit:10;stroke-width:2px" transform="translate(-.641 -.406)"/>
    <path data-name="Path 12917" d="M8.991 43.712H25.33" style="stroke:#333;fill:none;stroke-linecap:round;stroke-linejoin:round;stroke-miterlimit:10;stroke-width:2px" transform="translate(-.641 -.406)"/>
    <path data-name="Path 12918" d="M8.991 50.539H25.33" style="stroke:#333;fill:none;stroke-linecap:round;stroke-linejoin:round;stroke-miterlimit:10;stroke-width:2px" transform="translate(-.641 -.406)"/>
</svg>
