<svg xmlns="http://www.w3.org/2000/svg" width="101" height="101" viewBox="0 0 101 101">
    <g data-name="Group 18349">
        <g data-name="Ellipse 104" style="fill:#faf9f9;stroke:#dbdbdb">
            <circle cx="50.5" cy="50.5" r="50.5" style="stroke:none"/>
            <circle cx="50.5" cy="50.5" r="50" style="fill:none"/>
        </g>
        <g data-name="Group 17901">
            <path data-name="Path 11663" d="m336.1 341.627-.035.036a1.229 1.229 0 0 0 1.756 1.72l.035-.036a1.229 1.229 0 0 0-1.756-1.72z" transform="translate(-275.459 -280.082)" style="fill:#6f7e8e"/>
            <path data-name="Path 12819" d="m158.53 1032.875 5.055-1.269 3.851 1.269 3.548 3.336.771 4.35-.771 3.7-1.049 2.966-2.5 2.245-4.692 1.474-4.8-1.474-3.339-2.245-1.945-5.065.771-4.25 1.923-2.965z" transform="translate(-91.543 -991.489)" style="fill:#ea5d6e"/>
            <path data-name="Path 11665" d="M56.127 61.73A16.938 16.938 0 0 0 39.469 46.9a16.426 16.426 0 0 0-11.325 4.488A16.427 16.427 0 0 0 16.819 46.9 17.042 17.042 0 0 0 0 64.118a15.072 15.072 0 0 0 1.636 6.3h-.407a1.229 1.229 0 1 0 0 2.458h1.716A69.62 69.62 0 0 0 13.82 86.1 158.409 158.409 0 0 0 27.4 98.043a1.229 1.229 0 0 0 1.493 0c.052-.04 5.254-4.029 11.019-9.464a1.229 1.229 0 1 0-1.686-1.788 161.832 161.832 0 0 1-10.079 8.716 157.549 157.549 0 0 1-12.612-11.165 73.1 73.1 0 0 1-9.7-11.466h11a1.229 1.229 0 0 0 1.181-.89l2.148-7.486 5.946 19.053a1.229 1.229 0 0 0 2.346 0L31.75 73h5.487a1.229 1.229 0 1 0 0-2.458h-6.391a1.229 1.229 0 0 0-1.173.863l-2.389 7.657-6-19.21a1.229 1.229 0 0 0-2.355.027l-3.024 10.54H4.378a13.976 13.976 0 0 1-1.92-6.3 14.582 14.582 0 0 1 14.361-14.762 14.052 14.052 0 0 1 10.422 4.606 1.229 1.229 0 0 0 1.807 0 14.052 14.052 0 0 1 10.422-4.606 14.45 14.45 0 0 1 14.05 11.691 10.818 10.818 0 1 0 2.608.682zm-4.018 18.4a8.357 8.357 0 1 1 8.357-8.357 8.367 8.367 0 0 1-8.357 8.355z" transform="translate(19 -21.899)" style="fill:#6f7071"/>
            <path data-name="Path 11664" d="M387.645 207.2h-3.266v-3.266a1.229 1.229 0 1 0-2.458 0v3.266h-3.266a1.229 1.229 0 0 0 0 2.458h3.266v3.266a1.229 1.229 0 1 0 2.458 0v-3.266h3.266a1.229 1.229 0 1 0 0-2.458z" transform="translate(-312.041 -158.554)" style="fill:#fff"/>
        </g>
    </g>
</svg>
