<svg xmlns="http://www.w3.org/2000/svg" width="101" height="101" viewBox="0 0 101 101">
    <g data-name="Group 18348">
        <g data-name="Ellipse 103" style="fill:#faf9f9;stroke:#dbdbdb">
            <circle cx="50.5" cy="50.5" r="50.5" style="stroke:none"/>
            <circle cx="50.5" cy="50.5" r="50" style="fill:none"/>
        </g>
        <g data-name="987550">
            <g data-name="Group 16999">
                <path data-name="Rectangle 6392" transform="translate(41.174 70.841)" style="fill:#ea5d6e" d="M0 0h5.143v5.704H0z"/>
                <path data-name="Rectangle 6393" transform="translate(22.477 70.841)" style="fill:#ea5d6e" d="M0 0h5.142v5.704H0z"/>
            </g>
            <g data-name="Group 16988">
                <path data-name="Path 11836" d="M265.566 183.261a2.716 2.716 0 0 1 .123-5.429 2.648 2.648 0 0 1 .4.029" transform="translate(-211.556 -136.98)" style="fill:#e1eaf8"/>
                <path data-name="Path 11837" d="M472.906 183.261a2.716 2.716 0 0 0-.123-5.429 2.792 2.792 0 0 0-.4.029" transform="translate(-394.355 -136.98)" style="fill:#e1eaf8"/>
            </g>
            <path data-name="Path 11839" d="M285.3 300.7h-3.376a7.94 7.94 0 0 0-6.41 7.791v12.288h3.376v-12.288a7.94 7.94 0 0 1 6.41-7.791z" transform="translate(-222.501 -244.234)" style="fill:#ea5d6e"/>
            <g data-name="Group 16989">
                <path data-name="Path 11840" d="M336.5 301.688v.048a7.4 7.4 0 0 1-14.8 0v-.048" transform="translate(-262.821 -245.096)" style="fill:#fff"/>
                <path data-name="Path 11841" d="m291.249 108.375-4.779-3.475a8.81 8.81 0 0 1-3.591-7.975l.829-8.577a11.523 11.523 0 0 1 11.469-10.414 11.523 11.523 0 0 1 11.469 10.414l.829 8.576a8.81 8.81 0 0 1-3.591 7.975l-4.778 3.472a6.684 6.684 0 0 1-7.857.004z" transform="translate(-228.896 -49.78)" style="fill:#fff"/>
            </g>
            <path data-name="Path 11842" d="M285.858 98.639a5.318 5.318 0 0 0 1.237 3.737l4.994 6.137a3.978 3.978 0 0 0 .876.78 6.644 6.644 0 0 1-1.712-.9l-4.778-3.471a8.81 8.81 0 0 1-3.59-7.975l.828-8.577a11.52 11.52 0 0 1 11.3-10.411c-3.609.087-7.695 3.489-7.908 7.111z" transform="translate(-228.901 -49.8)" style="fill:#ea5d6e"/>
            <path data-name="Path 11843" d="M306.008 66.958s-5.139-6.131-11.757-3.454c-3.3 1.335-5.587 1.232-7.3.484l-.118-.055c-.037-.016-.073-.034-.109-.051a6.738 6.738 0 0 1-.971-.577c0 .01-.008.021-.013.031-1.3 3.347-6.989 3.73-6.989 3.73S276.203 63 277.6 59.857c1.107-2.492 4.044-5.13 9.042-6.116a22.374 22.374 0 0 1 4.344-.4c7.688-.002 15.022 5.12 15.022 13.617z" transform="translate(-223.962 -28.307)" style="fill:#fff"/>
            <path data-name="Path 11844" d="M286.648 56.509s-5.961 6.249-.9 9.6c-1.3 3.347-6.989 3.73-6.989 3.73s-2.548-4.066-1.151-7.209c1.104-2.497 4.041-5.135 9.04-6.121z" transform="translate(-223.962 -31.074)" style="fill:#ea5d6e"/>
            <g data-name="Group 16990">
                <path data-name="Rectangle 6392" transform="translate(74.41 70.841)" style="fill:#ea5d6e" d="M0 0h5.143v5.704H0z"/>
                <path data-name="Rectangle 6393" transform="translate(53.012 70.841)" style="fill:#ea5d6e" d="M0 0h5.142v5.704H0z"/>
            </g>
            <path data-name="Path 11848" d="M37.959 322.34h-3.191a7.505 7.505 0 0 0-6.059 7.364v9.964H31.9V329.7a7.505 7.505 0 0 1 6.059-7.36z" transform="translate(-7.061 -263.124)" style="fill:#ea5d6e"/>
            <g data-name="Group 16992">
                <path data-name="Path 11849" d="M86.359 323.274v.045a7 7 0 1 1-13.992 0v-.045" transform="translate(-45.173 -263.939)" style="fill:#fff"/>
                <path data-name="Path 11850" d="m37.023 141.4-4.693-3.41a9.338 9.338 0 0 1-3.793-8.581l.6-5.463a11.985 11.985 0 0 1 11.912-10.668 11.984 11.984 0 0 1 11.912 10.668l.6 5.463a9.338 9.338 0 0 1-3.793 8.581l-4.693 3.41a6.856 6.856 0 0 1-8.052 0z" transform="translate(-6.862 -80.627)" style="fill:#fff"/>
            </g>
            <path data-name="Path 11851" d="M41.054 113.278a11.984 11.984 0 0 0-11.912 10.668l-.6 5.463a9.338 9.338 0 0 0 3.793 8.581l4.693 3.41a6.848 6.848 0 0 0 4.027 1.309 4.457 4.457 0 0 1-3.074-1.309l-3.584-3.41a10.737 10.737 0 0 1-2.9-8.581l.461-5.463c.513-6.072 4.431-10.668 9.1-10.668" transform="translate(-6.862 -80.629)" style="fill:#f37b89"/>
            <g data-name="Group 16993">
                <path data-name="Path 11852" d="M53.888 115.493a17.593 17.593 0 0 1-4.005 4.694c-3.081 2.5-7.82 4.416-14.648 2.548a11.985 11.985 0 0 1 18.654-7.242z" transform="translate(-12.757 -80.631)" style="fill:#ea5d6e"/>
                <path data-name="Path 11853" d="M159.541 139.674a9.556 9.556 0 0 1-9.036-4.289 17.6 17.6 0 0 0 4.005-4.694 12.188 12.188 0 0 1 1.055.844 11.952 11.952 0 0 1 3.917 7.611z" transform="translate(-113.38 -95.829)" style="fill:#ea5d6e"/>
            </g>
            <g data-name="Group 16994" transform="translate(31.845 28.749)">
                <path data-name="Path 11854" d="m118.632 92.315 1.925 4.342a1.9 1.9 0 0 0 3.27.349l2.231-3.061a1.9 1.9 0 0 0-1.333-3.007l-4.723-.5-3.257-2.375-1.926-4.342a1.9 1.9 0 0 0-3.27-.348l-2.231 3.061a1.9 1.9 0 0 0 1.333 3.007l4.722.5" transform="translate(-108.952 -82.588)" style="fill:#ea5d6e"/>
                <circle data-name="Ellipse 101" cx="2.328" cy="2.328" r="2.328" transform="translate(6.409 5.271)" style="fill:#ea5d6e"/>
            </g>
            <g data-name="Group 16995">
                <path data-name="Path 11855" d="M308.292 379.956a1.03 1.03 0 0 1 1.03 1.03v8.5a1.03 1.03 0 0 1-1.03 1.03 1.03 1.03 0 0 1-1.03-1.03v-8.5a1.03 1.03 0 0 1 1.03-1.03z" transform="translate(-250.216 -313.418)" style="fill:#6f7e8e"/>
                <path data-name="Path 11856" d="M437.441 379.956a1.03 1.03 0 0 1 1.03 1.03v8.5a1.03 1.03 0 0 1-1.03 1.03 1.03 1.03 0 0 1-1.03-1.03v-8.5a1.03 1.03 0 0 1 1.03-1.03z" transform="translate(-362.953 -313.418)" style="fill:#6f7e8e"/>
            </g>
            <g data-name="Group 16996">
                <path data-name="Path 11857" d="M59.722 382.117a1.03 1.03 0 0 1 1.03 1.03v8.5a1.03 1.03 0 0 1-1.03 1.03 1.03 1.03 0 0 1-1.03-1.03v-8.5a1.03 1.03 0 0 1 1.03-1.03z" transform="translate(-33.234 -315.304)" style="fill:#6f7e8e"/>
                <path data-name="Path 11858" d="M180.224 382.117a1.03 1.03 0 0 1 1.03 1.03v8.5a1.03 1.03 0 0 1-1.03 1.03 1.03 1.03 0 0 1-1.03-1.03v-8.5a1.03 1.03 0 0 1 1.03-1.03z" transform="translate(-138.423 -315.304)" style="fill:#6f7e8e"/>
            </g>
            <g data-name="Group 16997">
                <path data-name="Path 11859" d="M330.961 207.778v1.4a1.03 1.03 0 1 0 2.06 0v-1.4a1.03 1.03 0 1 0-2.06 0z" transform="translate(-270.903 -162.221)" style="fill:#6f7e8e"/>
                <path data-name="Path 11860" d="M401.831 176.567a1.03 1.03 0 0 0 .728-1.758 3.853 3.853 0 0 0-5.449 0 1.03 1.03 0 0 0 1.457 1.457 1.792 1.792 0 0 1 2.535 0 1.029 1.029 0 0 0 .729.301z" transform="translate(-328.383 -133.355)" style="fill:#6f7e8e"/>
                <path data-name="Path 11861" d="M320.274 176.567a1.03 1.03 0 0 0 .728-1.758 3.853 3.853 0 0 0-5.449 0 1.03 1.03 0 1 0 1.456 1.457 1.792 1.792 0 0 1 2.535 0 1.028 1.028 0 0 0 .73.301z" transform="translate(-257.19 -133.355)" style="fill:#6f7e8e"/>
                <path data-name="Path 11862" d="M412.517 207.778v1.4a1.03 1.03 0 0 0 2.06 0v-1.4a1.03 1.03 0 1 0-2.06 0z" transform="translate(-342.095 -162.221)" style="fill:#6f7e8e"/>
                <path data-name="Path 11863" d="M357.222 269.975a4.218 4.218 0 0 0 2.992-1.237 1.03 1.03 0 0 0-1.457-1.457 2.173 2.173 0 0 1-3.07 0 1.03 1.03 0 0 0-1.457 1.457 4.218 4.218 0 0 0 2.992 1.237z" transform="translate(-290.951 -214.798)" style="fill:#6f7e8e"/>
                <path data-name="Path 11864" d="M367.645 213.217a1.03 1.03 0 0 0 1.03-1.03V208.7a1.03 1.03 0 1 0-2.06 0v2.462h-.715a1.03 1.03 0 0 0 0 2.06h1.746z" transform="translate(-300.502 -163.021)" style="fill:#6f7e8e"/>
                <path data-name="Path 11865" d="M145.83 224.114a3.674 3.674 0 0 0-2.615 1.083 1.03 1.03 0 0 0 1.457 1.457 1.638 1.638 0 0 1 2.317 0 1.03 1.03 0 0 0 1.457-1.457 3.673 3.673 0 0 0-2.616-1.083z" transform="translate(-106.751 -177.38)" style="fill:#6f7e8e"/>
                <path data-name="Path 11866" d="M71.355 226.654a1.03 1.03 0 0 0 0-1.457 3.7 3.7 0 0 0-5.23 0 1.03 1.03 0 0 0 1.457 1.457 1.638 1.638 0 0 1 2.317 0 1.03 1.03 0 0 0 1.457 0z" transform="translate(-39.458 -177.38)" style="fill:#6f7e8e"/>
                <path data-name="Path 11867" d="M106.961 283.745a2 2 0 0 1-2.822 0 1.03 1.03 0 0 0-1.457 1.457 4.056 4.056 0 0 0 5.736 0 1.03 1.03 0 0 0-1.457-1.457z" transform="translate(-71.37 -229.17)" style="fill:#6f7e8e"/>
                <path data-name="Path 11868" d="M114.765 252.515h1.394a1.03 1.03 0 0 0 0-2.06h-1.394a1.03 1.03 0 1 0 0 2.06z" transform="translate(-81.281 -200.374)" style="fill:#6f7e8e"/>
            </g>
            <g data-name="Group 16998">
                <path data-name="Path 11869" d="M22.833 122.251H4.667v-2.933a1.03 1.03 0 0 0-2.06 0v3.963a1.03 1.03 0 0 0 1.03 1.03h25.087a1.03 1.03 0 0 0 1.03-1.03v-9.964a8.552 8.552 0 0 0-5.059-7.8l.814-.591a10.39 10.39 0 0 0 4.254-9.009 3.6 3.6 0 0 0 .674-6.639l1.336-1.833a2.929 2.929 0 0 0-2.056-4.638 1.03 1.03 0 1 0-.218 2.048.869.869 0 0 1 .61 1.376L27.877 89.3a.869.869 0 0 1-1.5-.16l-1.574-3.55a3.375 3.375 0 0 0 .831-1.139l1.05.112a1.051 1.051 0 0 0 .111.006 1.03 1.03 0 0 0 .108-2.054l-1.045-.115a3.358 3.358 0 0 0-3.641-2.654L20.644 76.2a2.929 2.929 0 0 0-5.044-.537l-2.232 3.057a2.929 2.929 0 0 0 2.057 4.638l3.858.411a2.557 2.557 0 0 0 .257.762 3.62 3.62 0 0 0 1.415 1.5 3.184 3.184 0 0 0 1.615.415 3.394 3.394 0 0 0 .354-.019l1.576 3.544a2.9 2.9 0 0 0 2.365 1.729 3.039 3.039 0 0 0 .321.017h.053l.433 3.917a8.325 8.325 0 0 1-3.374 7.634l-4.693 3.41a5.812 5.812 0 0 1-6.849 0l-4.693-3.41a8.325 8.325 0 0 1-3.374-7.634l.6-5.463c0-.02.005-.04.008-.06l.43-2.015a10.972 10.972 0 0 1 6.188-6.814 1.03 1.03 0 1 0-.8-1.9 13.033 13.033 0 0 0-7.705 9.49 3.6 3.6 0 0 0-.81 7.049 10.39 10.39 0 0 0 4.254 9.009l.814.591a8.552 8.552 0 0 0-5.059 7.8v2.234a1.03 1.03 0 0 0 2.06 0v-2.234a6.488 6.488 0 0 1 3.611-5.809l1.193-.673 2.074 1.5a7.866 7.866 0 0 0 9.271 0L22.654 107a6.48 6.48 0 0 1 5.04 6.313v8.934h-4.861zM19.5 81.72l-3.86-.411a.869.869 0 0 1-.61-1.376l2.231-3.061a.869.869 0 0 1 1.5.16l1.574 3.55a3.373 3.373 0 0 0-.835 1.138zm3.068 2.661a1.3 1.3 0 1 1 1.3-1.3 1.3 1.3 0 0 1-1.298 1.301zm-19.749 9.41A1.538 1.538 0 0 1 3.127 91zm26.723 0L29.233 91a1.538 1.538 0 0 1 .308 2.789z" transform="translate(18 -46.739)" style="fill:#6f7071"/>
                <path data-name="Path 11870" d="M258.424 91.019v-5.554a6.923 6.923 0 0 1 3.924-6.232l.827-.369a.607.607 0 0 1 .605.063l2.347 1.709a7.692 7.692 0 0 0 9.069 0l1.632-1.185.718-.553a.787.787 0 0 1 .937-.017s1.092.666 1.375.857a1.03 1.03 0 0 0 1.342-.163 1.065 1.065 0 0 0-.249-1.584 8.96 8.96 0 0 0-1.188-.664v-.008l.211-.154a9.879 9.879 0 0 0 4.017-8.83 3.746 3.746 0 0 0-.7-7.268l-.115-1.191a1.03 1.03 0 1 0-2.051.2l.81 8.391a7.811 7.811 0 0 1-3.171 7.042l-4.779 3.471a5.637 5.637 0 0 1-6.646 0l-4.777-3.48a7.811 7.811 0 0 1-3.172-7.043l.73-7.559c1.578-.239 4.854-.993 6.442-3.245h.006c2.319 1.177 5.108 1.08 8.484-.286a8.242 8.242 0 0 1 7.411.633 12.72 12.72 0 0 1 3.17 2.527 1.031 1.031 0 0 0 1.365.194 1.05 1.05 0 0 0 .454-.879 13.8 13.8 0 0 0-6.432-11.83 1.03 1.03 0 0 0-1.491.409 1.061 1.061 0 0 0 .4 1.337 11.791 11.791 0 0 1 5.207 7.525h-.007a14.59 14.59 0 0 0-1.592-1.049 10.355 10.355 0 0 0-9.255-.782c-4.221 1.708-6.308.77-7.511-.084a7.687 7.687 0 0 1-.976-.832 1.054 1.054 0 0 0-1.378-.109 1.031 1.031 0 0 0-.1 1.545c.182.182.363.349.544.508v.006c-1.086 1.506-3.619 2.172-5.115 2.385-.57-1.117-1.663-3.7-.779-5.69 1.938-4.36 7.915-5.907 12.445-5.907a16.017 16.017 0 0 1 6.229 1.254 1.03 1.03 0 0 0 1.36-.565 1.062 1.062 0 0 0-.6-1.35 18.1 18.1 0 0 0-6.99-1.4c-8.227 0-12.8 3.683-14.328 7.13-1.375 3.093.425 6.764 1.035 7.858l-.083.858a3.746 3.746 0 0 0-.7 7.268 9.879 9.879 0 0 0 4.017 8.829l.212.154v.008a8.987 8.987 0 0 0-5.2 8.138v12.292a1.035 1.035 0 0 0 1.035 1.035h26.531a1.035 1.035 0 0 0 1.035-1.035V85.465a8.931 8.931 0 0 0-1.443-4.879 1.08 1.08 0 0 0-1.452-.362 1.03 1.03 0 0 0-.306 1.437 6.876 6.876 0 0 1 1.141 3.8v11.257h-24.47v-5.7zm-.88-24.864a1.686 1.686 0 0 1 .282-2.915zm26.956-1.379a1.682 1.682 0 0 1-.712 1.378l-.281-2.913a1.687 1.687 0 0 1 .993 1.535z" transform="translate(-204.394 -21.211)" style="fill:#6f7071"/>
            </g>
        </g>
    </g>
</svg>
