<svg xmlns="http://www.w3.org/2000/svg" width="101" height="101" viewBox="0 0 101 101">
    <g data-name="Group 18347">
        <g data-name="Ellipse 102" style="fill:#faf9f9;stroke:#dbdbdb">
            <circle cx="50.5" cy="50.5" r="50.5" style="stroke:none"/>
            <circle cx="50.5" cy="50.5" r="50" style="fill:none"/>
        </g>
        <g data-name="Group 17902">
            <path data-name="Path 11621" d="M132.3 37.315V34.3h18.932v3.012h4.3v-5.161A2.151 2.151 0 0 0 153.387 30h-23.236A2.151 2.151 0 0 0 128 32.151v5.163z" transform="translate(-91.231 -3.924)" style="fill:#ea5d6e"/>
            <path data-name="Path 11622" d="M133.586 138H98.3a4.3 4.3 0 0 0-4.3 4.3v3.442h43.889V142.3a4.3 4.3 0 0 0-4.303-4.3z" transform="translate(-60.888 -100.306)" style="fill:#ea5d6e"/>
            <g data-name="Group 16868">
                <path data-name="Path 11624" d="M132.3 187.162v-3.011a2.151 2.151 0 0 0-2.149-2.151 2.151 2.151 0 0 0-2.151 2.151v3.011a2.151 2.151 0 0 0 2.151 2.151 2.151 2.151 0 0 0 2.149-2.151z" transform="translate(-91.231 -139.573)" style="fill:#ecf2ff"/>
                <path data-name="Path 11625" d="M348.3 187.162v-3.011a2.151 2.151 0 0 0-2.149-2.151 2.151 2.151 0 0 0-2.151 2.151v3.011a2.151 2.151 0 0 0 2.151 2.151 2.151 2.151 0 0 0 2.149-2.151z" transform="translate(-283.996 -139.573)" style="fill:#ecf2ff"/>
            </g>
            <path data-name="Path 11626" d="M208.908 289.8h-4.3v-4.3h-4.3v4.3H196v4.3h4.3v4.3h4.3v-4.3h4.3z" transform="translate(-151.916 -231.936)" style="fill:#ea5d6e"/>
            <path data-name="Path 11627" d="M371.965 431.938H363a1.076 1.076 0 0 0 0 2.151h8.964a1.076 1.076 0 1 0 0-2.151z" transform="translate(-299.993 -362.625)" style="fill:#6f7071"/>
            <path data-name="Path 11628" d="M325 431.939a1.074 1.074 0 1 0 .761.314 1.085 1.085 0 0 0-.761-.314z" transform="translate(-266.085 -362.626)" style="fill:#6f7071"/>
            <path data-name="Path 11629" d="M49.7 31.618h-5.166V28.39a1.076 1.076 0 0 0-1.076-1.076h-1.075v-4.087A3.231 3.231 0 0 0 39.156 20H15.92a3.231 3.231 0 0 0-3.227 3.227v4.088h-1.075a1.076 1.076 0 0 0-1.076 1.076v3.227H5.379A5.385 5.385 0 0 0 0 37v30.55a3.231 3.231 0 0 0 3.227 3.227h48.622a3.231 3.231 0 0 0 3.227-3.227V37a5.385 5.385 0 0 0-5.376-5.382zm-28.4 0V28.39a1.076 1.076 0 0 0-1.076-1.076h-1.076v-.861h16.781v.861h-1.076a1.076 1.076 0 0 0-1.076 1.076v3.227zm14.63-2.151h6.454v2.151h-6.455zm-21.085-6.24a1.077 1.077 0 0 1 1.076-1.076h23.235a1.077 1.077 0 0 1 1.076 1.076v4.088H38.08v-1.936A1.076 1.076 0 0 0 37 24.3H18.072A1.076 1.076 0 0 0 17 25.379v1.936h-2.155zm-2.151 6.239h6.454v2.151h-6.455zm39.155 39.156H3.227a1.077 1.077 0 0 1-1.076-1.076V41.514h7.566a1.076 1.076 0 0 0 0-2.151H2.151V37a3.231 3.231 0 0 1 3.227-3.227H49.7A3.231 3.231 0 0 1 52.925 37v2.367h-7.566a1.076 1.076 0 0 0 0 2.151h7.566v26.028a1.077 1.077 0 0 1-1.076 1.076z" transform="translate(23 5)" style="fill:#6f7071"/>
            <path data-name="Path 11630" d="M141.235 177.163v1.075a3.227 3.227 0 1 0 6.454 0v-3.011a3.227 3.227 0 0 0-6.446-.215h-16.8a3.227 3.227 0 0 0-6.446.215v3.011a3.227 3.227 0 1 0 6.454 0v-1.075zm2.151-1.936a1.076 1.076 0 0 1 2.151 0v3.011a1.076 1.076 0 1 1-2.151 0zm-21.086 3.011a1.076 1.076 0 1 1-2.151 0v-3.011a1.076 1.076 0 0 1 2.151 0z" transform="translate(-82.307 -130.649)" style="fill:#6f7071"/>
            <path data-name="Path 11631" d="M201.06 280.874a1.076 1.076 0 0 0-1.076-1.076h-3.227v-3.227a1.076 1.076 0 0 0-1.076-1.076h-4.3a1.076 1.076 0 0 0-1.076 1.076v3.229h-3.227a1.076 1.076 0 0 0-1.078 1.074v4.3a1.076 1.076 0 0 0 1.076 1.076h3.224v3.227a1.076 1.076 0 0 0 1.076 1.076h4.3a1.076 1.076 0 0 0 1.076-1.076v-3.227h3.227a1.076 1.076 0 0 0 1.076-1.076zm-2.151 3.227h-3.227a1.076 1.076 0 0 0-1.076 1.076v3.223h-2.151v-3.227a1.076 1.076 0 0 0-1.076-1.076h-3.227v-2.147h3.227a1.076 1.076 0 0 0 1.076-1.076v-3.227h2.151v3.227a1.076 1.076 0 0 0 1.076 1.076h3.227z" transform="translate(-142.992 -223.012)" style="fill:#6f7071"/>
        </g>
    </g>
</svg>
