<svg xmlns="http://www.w3.org/2000/svg" width="72" height="72" viewBox="0 0 72 72">
    <path data-name="Path 12970" d="M36.375 5.625H3.708a2.333 2.333 0 0 0-2.333 2.333v56a2.333 2.333 0 0 0 2.333 2.333h32.667a2.333 2.333 0 0 0 2.333-2.333v-56a2.333 2.333 0 0 0-2.333-2.333z" transform="translate(-.375 .042)" style="stroke-linecap:round;stroke:#333;fill:none;stroke-linejoin:round;stroke-width:2px"/>
    <path data-name="Path 12971" d="M9.792 18.708a4.667 4.667 0 1 0-4.667-4.667 4.667 4.667 0 0 0 4.667 4.667z" transform="translate(.542 .958)" style="stroke:#333;fill:none;stroke-linejoin:round;stroke-width:2px"/>
    <path data-name="Path 12972" d="M9.792 29.958a4.667 4.667 0 1 0-4.667-4.667 4.667 4.667 0 0 0 4.667 4.667z" transform="translate(.542 3.708)" style="stroke:#333;fill:none;stroke-linejoin:round;stroke-width:2px"/>
    <path data-name="Path 12973" d="M9.792 41.208a4.667 4.667 0 1 0-4.667-4.667 4.667 4.667 0 0 0 4.667 4.667z" transform="translate(.542 6.458)" style="stroke:#333;fill:none;stroke-linejoin:round;stroke-width:2px"/>
    <path data-name="Path 12974" d="M9.792 52.458a4.667 4.667 0 1 0-4.667-4.667 4.667 4.667 0 0 0 4.667 4.667z" transform="translate(.542 9.208)" style="stroke:#333;fill:none;stroke-linejoin:round;stroke-width:2px"/>
    <path data-name="Path 12975" d="M24.792 18.708a4.667 4.667 0 1 0-4.667-4.667 4.667 4.667 0 0 0 4.667 4.667z" transform="translate(4.208 .958)" style="stroke:#333;fill:none;stroke-linejoin:round;stroke-width:2px"/>
    <path data-name="Path 12976" d="M24.792 29.958a4.667 4.667 0 1 0-4.667-4.667 4.667 4.667 0 0 0 4.667 4.667z" transform="translate(4.208 3.708)" style="stroke:#333;fill:none;stroke-linejoin:round;stroke-width:2px"/>
    <path data-name="Path 12977" d="M24.792 41.208a4.667 4.667 0 1 0-4.667-4.667 4.667 4.667 0 0 0 4.667 4.667z" transform="translate(4.208 6.458)" style="stroke:#333;fill:none;stroke-linejoin:round;stroke-width:2px"/>
    <path data-name="Path 12978" d="M24.792 52.458a4.667 4.667 0 1 0-4.667-4.667 4.667 4.667 0 0 0 4.667 4.667z" transform="translate(4.208 9.208)" style="stroke:#333;fill:none;stroke-linejoin:round;stroke-width:2px"/>
    <path data-name="Path 12979" d="M16.375 5.625v60.667" transform="translate(3.292 .042)" style="stroke:#333;fill:none;stroke-linejoin:round;stroke-width:2px"/>
    <path data-name="Path 12980" d="M51.958 20.542a9.333 9.333 0 1 0-9.333-9.333 9.333 9.333 0 0 0 9.333 9.333z" transform="translate(9.708 -.875)" style="stroke:#d24350;fill:none;stroke-linejoin:round;stroke-width:2px"/>
    <path data-name="Path 12981" d="m44.5 17.75 14-14" transform="translate(10.167 -.417)" style="stroke:#d24350;fill:none;stroke-linejoin:round;stroke-width:2px"/>
    <path data-name="Path 12982" d="M46.333 41.167A9.333 9.333 0 1 0 37 31.833a9.333 9.333 0 0 0 9.333 9.334z" transform="translate(8.333 4.167)" style="stroke:#d24350;fill:none;stroke-linejoin:round;stroke-width:2px"/>
    <path data-name="Path 12983" d="m38.875 38.375 14-14" transform="translate(8.792 4.625)" style="stroke:#d24350;fill:none;stroke-linejoin:round;stroke-width:2px"/>
    <path data-name="Path 12984" d="M51.958 61.792a9.333 9.333 0 1 0-9.333-9.333 9.333 9.333 0 0 0 9.333 9.333z" transform="translate(9.708 9.208)" style="stroke:#d24350;fill:none;stroke-linejoin:round;stroke-width:2px"/>
    <path data-name="Path 12985" d="m44.5 59 14-14" transform="translate(10.167 9.667)" style="stroke:#d24350;fill:none;stroke-linejoin:round;stroke-width:2px"/>
</svg>
