<svg xmlns="http://www.w3.org/2000/svg" width="72.068" height="72.121" viewBox="0 0 72.068 72.121">
    <g data-name="Group 265">
        <g data-name="Group 261" transform="translate(.249 .25)">
            <circle data-name="Ellipse 30" cx="9.5" cy="9.5" r="9.5" transform="translate(11 30.453)" style="fill:#f37b89"/>
            <path data-name="Path 166" d="m-21806.381 9566.752-.963.8-1.018 1.462v1.9l.332.7a3.95 3.95 0 0 0 .5.549c.043-.022 2.016-.651 2.016-.651s.955-1.576 1.01-1.685 0-1.7 0-1.7l-.664-1.159-.477-.4z" transform="translate(21836.568 -9525.464)" style="fill:#fff"/>
            <path data-name="Path 3" d="M2.709-511.748a3.549 3.549 0 0 0-1.469 1.007c-1.385 1.385-1.259-2.224-1.259 34.551s-.126 33.166 1.259 34.551c1.343 1.357-.24 1.259 19.46 1.259 16.856 0 17.192 0 17.933-.28a4.121 4.121 0 0 0 2.294-2.07l.392-.8.042-6.9c.028-3.777.07-6.882.1-6.882s.951.434 2.056.965c2.35 1.147 2.924 1.595 3.679 2.9a7.023 7.023 0 0 0 7.456 3.665c.965-.2 1.665-.5 4.742-2.112a35.985 35.985 0 0 0 3.8-2.182 1.121 1.121 0 0 0-.867-1.553 34.862 34.862 0 0 0-3.8 1.8 41.017 41.017 0 0 1-4.169 1.986 4.9 4.9 0 0 1-5.371-2.742 8.255 8.255 0 0 0-1.231-1.567c-.867-.867-1.091-.979-9.47-5.12-9.2-4.56-9.358-4.644-9.568-5.791a2.963 2.963 0 0 1 1.483-2.979c1.091-.56 1.007-.588 6.882 2.49 1.231.643 1.4.7 1.79.573a.969.969 0 0 0 .7-.993c0-.168-2.336-4.784-5.2-10.253-5.008-9.554-5.2-9.96-5.2-10.7a2.73 2.73 0 0 1 2.42-2.77 2.264 2.264 0 0 1 2 .881c.14.182 2.266 4.182 4.742 8.911s4.616 8.715 4.784 8.883a.987.987 0 0 0 1.637-.392c.154-.35.084-.546-.7-2.112-.49-.951-.923-1.79-.979-1.86a2.583 2.583 0 0 1-.154-1.707 3.076 3.076 0 0 1 1.9-1.8 3.066 3.066 0 0 1 1.958.28 11.175 11.175 0 0 1 1.343 2.14 23.128 23.128 0 0 0 1.217 2.168 1.192 1.192 0 0 0 1.441 0c.5-.42.378-.923-.769-3.091a12.467 12.467 0 0 1-1.063-2.364 2.843 2.843 0 0 1 1.133-1.93 2.843 2.843 0 0 1 2.644-.238c.392.21.643.588 1.483 2.2a23.438 23.438 0 0 0 1.259 2.2 1.045 1.045 0 0 0 1.735-.657 12.2 12.2 0 0 0-1.049-2.364c-1.147-2.168-1.217-2.532-.769-3.427a2.7 2.7 0 0 1 4.224-.6c.378.42 4.364 8.085 5.274 10.142a57.942 57.942 0 0 1 2.742 7.889 37.257 37.257 0 0 0 1.2 3.651 8.215 8.215 0 0 1 .643 2.126 4.767 4.767 0 0 1-1.874 4.113c-.937.643-1.161.9-1.161 1.273a1.264 1.264 0 0 0 1.021 1.105c.923 0 2.728-1.665 3.441-3.175a6.918 6.918 0 0 0-.168-6.379 21.725 21.725 0 0 1-.937-2.728c-1.483-5.623-2.532-8.169-6.463-15.639-1.553-2.938-1.944-3.567-2.532-4.085a4.586 4.586 0 0 0-3.483-1.133 4.811 4.811 0 0 0-3.889 2.644l-.266.574H51.71a3.9 3.9 0 0 0-2.14.364 5.4 5.4 0 0 0-2.252 2.224l-.294.629h-1.455a3.987 3.987 0 0 0-2.252.406 4.989 4.989 0 0 0-1.357 1.035l-.56.629-.042-13.96-.042-13.974-.392-.8a4.121 4.121 0 0 0-2.294-2.07c-.727-.266-1.077-.28-13.457-.28-12.212 0-12.729.014-13.037.266a1.082 1.082 0 0 0 0 1.567c.308.252.825.266 12.911.266 14.016 0 13.219-.056 13.848.965.28.434.322.727.378 2.28l.042 1.79H2.08v-1.721c0-1.888.154-2.42.881-2.952.35-.252.657-.308 2.434-.364 1.916-.07 2.042-.084 2.294-.406a.916.916 0 0 0-.084-1.343c-.322-.336-.406-.35-2.266-.336a8.852 8.852 0 0 0-2.63.233zm36.551 18c.014 5.469-.014 8.883-.1 8.813s-.671-1.161-1.329-2.42l-1.2-2.28v-3.5c0-2.742-.042-3.581-.2-3.875a2.781 2.781 0 0 0-1.5-1.287c-.294-.084-5.707-.14-14.394-.14-13.373 0-13.946.014-14.506.266a2.507 2.507 0 0 0-.979.867l-.392.6v4.476c0 4.448 0 4.49.322 5.008a3.417 3.417 0 0 0 .839.839l.518.322 10.8.042 10.785.028 3.455 6.616c1.9 3.623 3.749 7.134 4.1 7.777l.629 1.175-1.385-.727a18.709 18.709 0 0 0-2.07-.979l-.685-.238-.238-1.189a10.44 10.44 0 0 0-3.217-5.861 10.471 10.471 0 0 0-6.658-3.231 11.4 11.4 0 0 0-12.17 8.407 13.869 13.869 0 0 0 .056 5.777A11.467 11.467 0 0 0 17.7-460.5a13.869 13.869 0 0 0 5.777.056 13.548 13.548 0 0 0 5.148-2.91c.154-.2.5-.056 3.007 1.2a293.87 293.87 0 0 0 5.246 2.574l2.42 1.133-.042 2.07-.042 2.07-18.562.042-18.576.028v-48.539l18.576.028 18.562.042zm-4.756-.811.042 1.707-.867-.448a3.3 3.3 0 0 0-2-.448 4.079 4.079 0 0 0-1.79.308 4.675 4.675 0 0 0-2.938 4.406v.951h-9.96c-7.554 0-10-.042-10.128-.168a44.023 44.023 0 0 1 0-7.917c.126-.126 3.329-.168 13.89-.14l13.709.042zM22.223-480.47a9.292 9.292 0 0 1 6.323 4.35 9.489 9.489 0 0 1 1.189 3.273l.07.643-.8.406a4.673 4.673 0 0 0-2.182 2.448 5.484 5.484 0 0 0 .126 3.637 5.54 5.54 0 0 1 .308.713 4.847 4.847 0 0 1-.825.755 9.19 9.19 0 0 1-14.939-6.7 9.059 9.059 0 0 1 5.344-8.813 8.645 8.645 0 0 1 5.386-.712zm17.038 32.425c-.042 3.973-.056 4.113-.364 4.6-.629 1.035.671.965-18.241.965-15.877 0-17-.014-17.443-.252a2.448 2.448 0 0 1-.769-.629c-.28-.378-.294-.6-.336-4.588l-.042-4.182H39.3z" transform="translate(.021 512)" style="stroke:#6f7071;stroke-width:.5px;fill:#6f7071"/>
            <path data-name="Path 4" d="m109.8-252.475-3.525 3.525-1.315-1.287c-1.161-1.133-1.371-1.287-1.818-1.287a.87.87 0 0 0-.783.364c-.532.671-.406.937 1.147 2.532 1.581 1.637 2.378 2.28 2.812 2.28a38.11 38.11 0 0 0 4.378-4.085c3.707-3.693 4.1-4.141 4.1-4.546a.977.977 0 0 0-1.028-1.021c-.405 0-.811.364-3.968 3.525z" transform="translate(-87.789 291.81)" style="stroke:#6f7071;stroke-width:.5px;fill:#fff"/>
            <path data-name="Path 5" d="M108.474-69.76a2.581 2.581 0 0 0-1.874 2.714 2.652 2.652 0 0 0 1.287 2.406c.532.294.671.308 4.406.308a29.606 29.606 0 0 0 4.252-.154 2.737 2.737 0 0 0 1.581-2.616 2.743 2.743 0 0 0-1.93-2.686 52.69 52.69 0 0 0-7.722.028zm7.428 2.2c.28.224.308.322.2.657l-.14.406-3.483.042c-3.679.042-3.861 0-3.861-.615 0-.713.168-.755 3.707-.755 2.99-.004 3.283.025 3.575.262z" transform="translate(-91.686 131.756)" style="stroke:#6f7071;stroke-width:.5px;fill:#6f7071"/>
        </g>
    </g>
</svg>
