<svg xmlns="http://www.w3.org/2000/svg" width="79.784" height="67.898" viewBox="0 0 79.784 67.898">
    <g data-name="Group 267">
        <path data-name="Path 189" d="M22.531-473.686A22.968 22.968 0 0 0 2.31-455.414a36.308 36.308 0 0 0-.062 8.622 41.871 41.871 0 0 0 1.809 6c.3.7.546 1.31.546 1.341a8.564 8.564 0 0 1-1.419.062c-1.7 0-2.339.249-2.713 1.045a1.556 1.556 0 0 0 .405 1.98l.483.405H11.54c7.546 0 10.305-.047 10.6-.187a10.017 10.017 0 0 0 1.933-2.744l1.543-2.541.842 1.294c.468.717 1.886 2.9 3.165 4.88 1.263 1.964 2.494 3.773 2.7 4.007a1.717 1.717 0 0 0 2.728-.3c.125-.234 1.606-4.194 3.305-8.778 1.684-4.584 3.118-8.388 3.18-8.466.062-.062 1.091 2.495 2.276 5.691s2.245 6 2.354 6.236c.468.92.343.9 7.2.9h6.3l.53-.53a1.571 1.571 0 0 0 .265-2.074c-.514-.78-.857-.826-6.408-.826h-5.127l-2.307-6.205c-3.414-9.136-3.508-9.4-3.944-9.806a1.374 1.374 0 0 0-1.06-.359c-1.31 0-1.2-.218-4.989 10.04-1.871 5.114-3.461 9.292-3.508 9.292s-1.481-2.152-3.18-4.771-3.258-4.864-3.446-5a1.881 1.881 0 0 0-1.918.078 27.419 27.419 0 0 0-2.339 3.523l-1.935 3.218-5.862-.031-5.862-.047-.733-1.481A22.886 22.886 0 0 1 5.6-453.855a18.981 18.981 0 0 1 5.472-10.726 19.263 19.263 0 0 1 20.969-4.272 19.363 19.363 0 0 1 6.548 4.459c2.307 2.245 2.526 2.245 4.74.016a24.828 24.828 0 0 1 2.76-2.385 19.216 19.216 0 0 1 11.069-3.492 19.331 19.331 0 0 1 19.1 15.871 24.661 24.661 0 0 1 .078 6.423 40.335 40.335 0 0 1-1.746 6.112c-2.526 5.94-9.37 13.611-19.473 21.811-3.227 2.619-9.386 7.156-12.815 9.417l-1.356.889-2.432-1.653a145.768 145.768 0 0 1-20.19-16.23c-1.419-1.388-2.744-2.635-2.962-2.775a1.732 1.732 0 0 0-1.871.047 1.967 1.967 0 0 0-.7 1.84c.2.842 6.345 6.673 11.3 10.726 3.742 3.071 8.247 6.423 12.706 9.448 3.305 2.245 3.82 2.526 4.443 2.385a60 60 0 0 0 7.39-4.8c16.308-11.677 26.613-22.45 29.653-30.994a44.678 44.678 0 0 0 1.637-6.751 23.2 23.2 0 0 0-3.82-15.279 26.676 26.676 0 0 0-5.207-5.472 22.869 22.869 0 0 0-23.729-2.183 22.236 22.236 0 0 0-5.519 3.8 2.029 2.029 0 0 1-.608.483 6.127 6.127 0 0 1-1.107-.826 22.7 22.7 0 0 0-13.3-5.706 15.7 15.7 0 0 0-4.099-.014z" transform="translate(-.28 473.813)" style="fill:#6f7071"/>
        <path data-name="Path 190" d="M4.6-441.777a8.564 8.564 0 0 1-1.419.062c-1.7 0-2.339.249-2.713 1.045a1.556 1.556 0 0 0 .405 1.98l.483.405H11.54c7.546 0 10.305-.047 10.6-.187a10.017 10.017 0 0 0 1.933-2.744l1.543-2.541.842 1.294c.468.717 1.886 2.9 3.165 4.88 1.263 1.964 2.494 3.773 2.7 4.007a1.717 1.717 0 0 0 2.728-.3c.125-.234 1.606-4.194 3.305-8.778 1.684-4.584 3.118-8.388 3.18-8.466.062-.062 1.091 2.495 2.276 5.691s2.245 6 2.354 6.236c.468.92.343.9 7.2.9h6.3l.53-.53a1.571 1.571 0 0 0 .265-2.074c-.514-.78-.857-.826-6.408-.826h-5.127l-2.307-6.205c-3.414-9.136-3.508-9.4-3.944-9.806a1.374 1.374 0 0 0-1.06-.359c-1.31 0-1.2-.218-4.989 10.04-1.871 5.114-3.461 9.292-3.508 9.292s-1.481-2.152-3.18-4.771-3.258-4.864-3.446-5a1.881 1.881 0 0 0-1.918.078 27.415 27.415 0 0 0-2.339 3.523l-1.935 3.216-5.862-.031-5.862-.047c-2.727-5.519-3.976-.015-3.976.016z" transform="translate(-.28 476.141)" style="fill:#f37b89"/>
    </g>
</svg>
