<svg xmlns="http://www.w3.org/2000/svg" width="38.4" height="57.6" viewBox="0 0 38.4 57.6">
    <path data-name="Path 12919" d="M.3 6.2v45.6a6.007 6.007 0 0 0 6 6h26.4a6.007 6.007 0 0 0 6-6V6.2a6.007 6.007 0 0 0-6-6H6.3a6.007 6.007 0 0 0-6 6zM2.7 11h33.6v36H2.7zm30 44.4H6.3a3.6 3.6 0 0 1-3.6-3.6v-2.4h33.6v2.4a3.6 3.6 0 0 1-3.6 3.6zM6.3 2.6h26.4a3.6 3.6 0 0 1 3.6 3.6v2.4H2.7V6.2a3.6 3.6 0 0 1 3.6-3.6z" style="fill:#333" transform="translate(-.3 -.2)"/>
    <path data-name="Path 12920" d="m16.251 24.552-8.4 8.4 1.7 1.7 8.4-8.4z" style="fill:#d24350" transform="translate(-.3 -.2)"/>
    <path data-name="Path 12921" d="m29.451 22.151-16.8 16.8 1.7 1.7 16.8-16.8z" style="fill:#d24350" transform="translate(-.3 -.2)"/>
    <path data-name="Path 12922" d="m23.452 17.351-4.8 4.8 1.7 1.7 4.8-4.8z" style="fill:#d24350" transform="translate(-.3 -.2)"/>
</svg>
