<svg xmlns="http://www.w3.org/2000/svg" width="63.596" height="61.539" viewBox="0 0 63.596 61.539">
    <g data-name="Group 18359">
        <path data-name="Rectangle 6893" transform="translate(12.044 2.334)" style="fill:#ea5d6e" d="M0 0h5v10H0z"/>
        <path data-name="Rectangle 6894" transform="translate(46.044 2.334)" style="fill:#ea5d6e" d="M0 0h5v10H0z"/>
        <path data-name="Rectangle 6895" transform="translate(52.044 38.334)" style="fill:#ea5d6e" d="M0 0h4v5H0z"/>
        <path data-name="Rectangle 6896" transform="translate(7.044 27.334)" style="fill:#ea5d6e" d="M0 0h5v5H0z"/>
        <path data-name="Path 11740" d="M39.28 57.382v5.611a.935.935 0 0 0 .935.935h5.611a.935.935 0 0 0 .935-.935v-5.611a.935.935 0 0 0-.935-.935h-5.611a.935.935 0 0 0-.935.935zm1.87.935h3.741v3.741H41.15zm5.9-23.163a.936.936 0 0 0-1.323 0l-3.307 3.307-1.543-1.543a.935.935 0 0 0-1.323 1.323l2.2 2.2a.935.935 0 0 0 1.323 0l3.968-3.968a.935.935 0 0 0 .004-1.319zm-6.873 16.654a.935.935 0 0 0 1.323 0l1.521-1.521 1.521 1.521a.935.935 0 1 0 1.323-1.323l-1.521-1.521 1.521-1.521a.935.935 0 1 0-1.323-1.323l-1.521 1.521-1.521-1.52a.935.935 0 1 0-1.323 1.323l1.523 1.521-1.521 1.521a.935.935 0 0 0-.002 1.322zm22.484 3.7a.935.935 0 0 0 .935-.935V18.57a4.681 4.681 0 0 0-4.676-4.676h-6.547v-1.87a3.741 3.741 0 0 0-7.326-1.072.935.935 0 0 0 1.792.535 1.871 1.871 0 0 1 3.663.536v5.985a1.87 1.87 0 1 1-3.741 0v-3.18a1.155 1.155 0 0 0-1.122-.935H18.58v-1.87a3.741 3.741 0 1 0-7.482 0v1.87H4.676A4.681 4.681 0 0 0 0 18.57v46.575a4.681 4.681 0 0 0 4.676 4.676H58.92a4.681 4.681 0 0 0 4.68-4.676v-5.238a.935.935 0 1 0-1.87 0v5.237a2.809 2.809 0 0 1-2.81 2.806H4.676a2.809 2.809 0 0 1-2.806-2.805V30.728h3.076a.935.935 0 1 0 0-1.87H1.87V18.57a2.809 2.809 0 0 1 2.806-2.806H11.1v2.245a3.741 3.741 0 1 0 7.482 0v-2.245h26.309v2.245a3.741 3.741 0 1 0 7.482 0v-2.245h6.547a2.809 2.809 0 0 1 2.806 2.806v10.287H10.132a.935.935 0 1 0 0 1.87h51.594v23.85a.935.935 0 0 0 .935.936zm-45.951-37.5a1.87 1.87 0 1 1-3.741 0v-5.985a1.87 1.87 0 1 1 3.741 0zM51.4 40.643a.935.935 0 0 0 1.323 0l1.521-1.521 1.521 1.521a.935.935 0 1 0 1.323-1.323l-1.521-1.52 1.521-1.521a.935.935 0 0 0-1.323-1.323l-1.521 1.521-1.521-1.521a.935.935 0 0 0-1.323 1.322l1.521 1.522-1.521 1.52a.935.935 0 0 0 0 1.323zm-.9 5.516v5.611a.935.935 0 0 0 .935.935h5.611a.935.935 0 0 0 .935-.935v-5.611a.935.935 0 0 0-.935-.935h-5.608a.935.935 0 0 0-.938.935zm1.87.935h3.741v3.741h-3.738zm-34.6 9.352a.935.935 0 0 0-.935.935v5.611a.935.935 0 0 0 .935.935h5.611a.935.935 0 0 0 .935-.935v-5.61a.935.935 0 0 0-.935-.935zm4.676 5.611H18.7v-3.74h3.741zm2.157-26.9a.936.936 0 0 0-1.323 0l-3.307 3.307-1.543-1.543a.935.935 0 0 0-1.323 1.323l2.2 2.2a.935.935 0 0 0 1.323 0l3.97-3.967a.935.935 0 0 0 0-1.323zM6.547 56.447a.935.935 0 0 0-.935.935v5.611a.935.935 0 0 0 .935.935h5.611a.935.935 0 0 0 .935-.935v-5.611a.935.935 0 0 0-.935-.935zm4.676 5.611H7.482v-3.741h3.741zM13.38 46.32a.936.936 0 0 0-1.323 0l-3.306 3.306-1.543-1.543a.935.935 0 1 0-1.323 1.323l2.2 2.2a.935.935 0 0 0 1.323 0l3.968-3.968a.935.935 0 0 0 .004-1.318zm22.446 0a.936.936 0 0 0-1.323 0L31.2 49.626l-1.543-1.543a.935.935 0 1 0-1.323 1.323l2.2 2.2a.935.935 0 0 0 1.323 0l3.968-3.968a.935.935 0 0 0 .001-1.318zm-23.668-4.78a.935.935 0 0 0 .935-.935v-5.612a.935.935 0 0 0-.935-.935H6.547a.935.935 0 0 0-.935.935V40.6a.935.935 0 0 0 .935.935h5.611zm-4.676-5.611h3.741v3.741H7.482zM24.6 46.32a.936.936 0 0 0-1.323 0l-3.307 3.307-1.543-1.543a.935.935 0 1 0-1.323 1.323l2.2 2.2a.935.935 0 0 0 1.323 0l3.973-3.965a.935.935 0 0 0 0-1.322zm4.389 10.127a.935.935 0 0 0-.935.935v5.611a.935.935 0 0 0 .935.935H34.6a.935.935 0 0 0 .935-.935v-5.611a.935.935 0 0 0-.935-.935zm4.676 5.611h-3.737v-3.741h3.741zm2.157-26.9a.936.936 0 0 0-1.323 0L31.2 38.461l-1.543-1.543a.935.935 0 0 0-1.323 1.323l2.2 2.2a.935.935 0 0 0 1.323 0l3.968-3.968a.935.935 0 0 0 .001-1.319z" transform="translate(0 -8.282)" style="fill:#6f7071"/>
    </g>
</svg>
