<svg xmlns="http://www.w3.org/2000/svg" width="70.073" height="70.197" viewBox="0 0 70.073 70.197">
    <path data-name="Icon feather-phone-call" d="M43.31 13.91a15.513 15.513 0 0 1 12.255 12.256M43.31 1.5a27.923 27.923 0 0 1 24.665 24.635m-3.1 24.759V60.2a6.205 6.205 0 0 1-6.764 6.205 61.4 61.4 0 0 1-26.775-9.525 60.5 60.5 0 0 1-18.618-18.614 61.4 61.4 0 0 1-9.525-26.9A6.205 6.205 0 0 1 9.367 4.6h9.308a6.205 6.205 0 0 1 6.205 5.339 39.837 39.837 0 0 0 2.172 8.718 6.205 6.205 0 0 1-1.4 6.546l-3.94 3.94A49.642 49.642 0 0 0 40.331 47.76l3.94-3.94a6.205 6.205 0 0 1 6.546-1.4 39.837 39.837 0 0 0 8.718 2.172 6.205 6.205 0 0 1 5.338 6.301z" transform="translate(-.665 1.261)" style="fill:none;stroke:#535252;stroke-linecap:round;stroke-linejoin:round;stroke-width:5px"/>
</svg>
