<svg xmlns="http://www.w3.org/2000/svg" width="73.509" height="53.906" viewBox="0 0 73.509 53.906">
    <path data-name="Path 12923" d="M68.607 55.355a1.226 1.226 0 0 1-1.225-1.225v-39.2a1.229 1.229 0 0 0-1.225-1.23H9.8a1.229 1.229 0 0 0-1.225 1.225v39.2a1.225 1.225 0 1 1-2.45 0v-39.2A3.68 3.68 0 0 1 9.8 11.25h56.357a3.68 3.68 0 0 1 3.675 3.675v39.2a1.226 1.226 0 0 1-1.225 1.23z" transform="translate(-1.224 -11.25)" style="fill:#333"/>
    <path data-name="Path 12924" d="M69.758 54.226H8.5A6.131 6.131 0 0 1 2.375 48.1 1.226 1.226 0 0 1 3.6 46.875h26.953a1.225 1.225 0 0 1 0 2.45H5.036A3.68 3.68 0 0 0 8.5 51.776h61.258a3.68 3.68 0 0 0 3.465-2.45H47.705a1.225 1.225 0 1 1 0-2.45h26.953a1.226 1.226 0 0 1 1.226 1.224 6.131 6.131 0 0 1-6.126 6.126z" transform="translate(-2.375 -.32)" style="fill:#333"/>
    <path data-name="Path 12925" d="M37.017 53.629h-4.408a1.224 1.224 0 0 1-1.2-.965l-.725-3.315a14.459 14.459 0 0 1-2.926-1.215l-2.857 1.83a1.227 1.227 0 0 1-1.526-.164l-3.114-3.114a1.224 1.224 0 0 1-.167-1.527l1.83-2.857a14.452 14.452 0 0 1-1.215-2.926l-3.309-.725a1.224 1.224 0 0 1-.963-1.2v-4.404a1.222 1.222 0 0 1 .963-1.2l3.31-.725a14.782 14.782 0 0 1 1.219-2.922L20.1 25.343a1.223 1.223 0 0 1 .164-1.526l3.113-3.117a1.227 1.227 0 0 1 1.526-.164l2.86 1.83a14.588 14.588 0 0 1 2.923-1.213l.725-3.313a1.227 1.227 0 0 1 1.2-.968h4.409a1.222 1.222 0 0 1 1.2.965l.725 3.313a14.406 14.406 0 0 1 2.923 1.213l2.859-1.83a1.226 1.226 0 0 1 1.526.164l3.114 3.114a1.224 1.224 0 0 1 .164 1.526L47.7 28.2a14.473 14.473 0 0 1 1.213 2.923l3.315.725a1.225 1.225 0 0 1 .963 1.2v4.408a1.222 1.222 0 0 1-.963 1.2l-3.315.725A14.529 14.529 0 0 1 47.7 42.3l1.83 2.86a1.224 1.224 0 0 1-.164 1.526L46.25 49.8a1.228 1.228 0 0 1-1.529.164l-2.857-1.835a14.376 14.376 0 0 1-2.923 1.213l-.725 3.318a1.224 1.224 0 0 1-1.199.969zm-3.417-2.45h2.436l.674-3.085a1.23 1.23 0 0 1 .916-.934 12.047 12.047 0 0 0 3.624-1.5 1.225 1.225 0 0 1 1.308.01l2.656 1.705 1.723-1.723-1.7-2.661a1.227 1.227 0 0 1-.012-1.3 12.079 12.079 0 0 0 1.5-3.624 1.225 1.225 0 0 1 .934-.919l3.08-.674v-2.44l-3.08-.674a1.23 1.23 0 0 1-.934-.916 12.092 12.092 0 0 0-1.5-3.626 1.222 1.222 0 0 1 .012-1.3l1.7-2.658-1.723-1.723-2.658 1.7a1.227 1.227 0 0 1-1.3.012 12.142 12.142 0 0 0-3.626-1.5 1.223 1.223 0 0 1-.916-.931l-.674-3.087H33.6l-.674 3.083a1.226 1.226 0 0 1-.919.931 12.027 12.027 0 0 0-3.624 1.5 1.222 1.222 0 0 1-1.3-.012l-2.659-1.7-1.724 1.718 1.7 2.659a1.226 1.226 0 0 1 .01 1.306 12.164 12.164 0 0 0-1.51 3.626 1.217 1.217 0 0 1-.929.914l-3.078.674v2.436l3.08.674a1.229 1.229 0 0 1 .934.919 12.065 12.065 0 0 0 1.5 3.624 1.216 1.216 0 0 1-.01 1.306l-1.7 2.659 1.723 1.723 2.659-1.7a1.231 1.231 0 0 1 1.306-.01 12.039 12.039 0 0 0 3.624 1.5 1.225 1.225 0 0 1 .919.934zm1.215-7.351a8.576 8.576 0 1 1 8.576-8.576 1.225 1.225 0 1 1-2.45 0 6.126 6.126 0 1 0-6.126 6.126 6.364 6.364 0 0 0 1.193-.115 1.225 1.225 0 1 1 .473 2.4 8.464 8.464 0 0 1-1.669.165z" transform="translate(1.94 -9.524)" style="fill:#d24350"/>
    <path data-name="Path 12926" d="M35.477 36.336a1.225 1.225 0 1 0-1.225-1.225 1.225 1.225 0 0 0 1.225 1.225z" transform="translate(7.405 -4.305)" style="fill:#d24350"/>
</svg>
