<svg xmlns="http://www.w3.org/2000/svg" width="70" height="70" viewBox="0 0 70 70">
    <defs>
        <clipPath id="1sthe5hjla">
            <path data-name="Rectangle 6977" transform="translate(.625 .125)" style="fill:#fff" d="M0 0h70v70H0z"/>
        </clipPath>
    </defs>
    <g transform="translate(-.625 -.125)" style="clip-path:url(#1sthe5hjla)">
        <path data-name="Path 12955" d="M47.609 33.431a1.029 1.029 0 1 0-1.456-1.455 1.689 1.689 0 0 1-2.388 0 1.029 1.029 0 0 0-1.456 1.455 3.747 3.747 0 0 0 5.3 0z" transform="translate(7.091 5.411)" style="fill:#333"/>
        <path data-name="Path 12956" d="M42.775 27.434a2.728 2.728 0 0 0-3.755 0 1.029 1.029 0 0 0 1.429 1.481.661.661 0 0 1 .9 0 1.029 1.029 0 0 0 1.429-1.481z" transform="translate(6.527 4.559)" style="fill:#333"/>
        <path data-name="Path 12957" d="M48.35 28.916a.663.663 0 0 1 .9 0 1.029 1.029 0 0 0 1.429-1.481 2.731 2.731 0 0 0-3.759 0 1.029 1.029 0 1 0 1.429 1.481z" transform="translate(7.877 4.559)" style="fill:#333"/>
        <path data-name="Path 12958" d="M28.183 45.883a1.029 1.029 0 0 0 1.029-1.029V44.2a1.029 1.029 0 1 0-2.058 0v.655a1.029 1.029 0 0 0 1.029 1.028z" transform="translate(4.553 7.375)" style="fill:#333"/>
        <path data-name="Path 12959" d="M33.162 45.883a1.029 1.029 0 0 0 1.029-1.029V44.2a1.029 1.029 0 0 0-2.058 0v.655a1.029 1.029 0 0 0 1.029 1.028z" transform="translate(5.404 7.375)" style="fill:#333"/>
        <path data-name="Path 12960" d="M70.721 60.821 69.49 51.3a9.311 9.311 0 0 0-1.361-3.91 1.029 1.029 0 1 0-1.729 1.116 7.181 7.181 0 0 1 1.048 3.057l1.2 9.311h-7V56.5a1.029 1.029 0 0 0-2.058 0v4.372H46.507c-1.081-1.692-3-2.4-4.729-2.891l-.04-.011c-.27-.077-.536-.147-.792-.215l-.488-.132c-.187-.051-.342-.3-.464-.569 2.508-1.725 4.37-4.657 4.37-7.217v-2.32a11.86 11.86 0 0 0-.3-2.689 186.64 186.64 0 0 1 1.343-.361l4.694 3.18a2.84 2.84 0 0 0 3.888 0l4.7-3.182c.092.026.187.051.28.075a26.669 26.669 0 0 1 4.218 1.371 1.029 1.029 0 1 0 .855-1.873 28.349 28.349 0 0 0-4.542-1.486 48.536 48.536 0 0 1-.722-.2c-.556-.152-.892-.851-1.124-1.444 3.69-2.391 6.469-6.64 6.469-10.333v-8.058c0-4.141-3.132-7.882-7.98-9.532a13.264 13.264 0 0 0-6.058-.646 7.57 7.57 0 0 0-4.675 2.346c-2.269.356-5.567 2.114-5.455 9.337v6.557c0 3.691 2.79 7.943 6.493 10.335-.232.593-.569 1.289-1.125 1.441a.988.988 0 0 0-.077.025c-.231.062-1.455.388-1.843.5a8.624 8.624 0 0 0-1.711-2.456 8.5 8.5 0 0 0-5.925-2.492h-.033a8.508 8.508 0 0 0-5.927 2.492 8.712 8.712 0 0 0-1.907 2.913c-.822-.279-2.8-.819-2.8-.819-.564-.154-.9-.882-1.131-1.479 2.745-2.09 4.731-5.367 4.731-8.247v-2.824a1.031 1.031 0 0 0-.958-1.028 3.562 3.562 0 0 1-2.688-1.3 3.136 3.136 0 0 0-3.4-1.117c-.48.124-.889.232-1.242.327a8.764 8.764 0 0 1-1.97.412 8.755 8.755 0 0 1-1.972-.412c-.353-.095-.76-.2-1.24-.327a3.142 3.142 0 0 0-3.4 1.118 3.56 3.56 0 0 1-2.685 1.3 1.03 1.03 0 0 0-.956 1.028v2.824c0 2.879 1.984 6.158 4.729 8.247-.229.6-.565 1.326-1.131 1.479l-.288.08c-2.357.641-4.9 1.334-6.756 3.138-.445-.144-1.946-.469-2.092-.5a5.072 5.072 0 0 1 .4-.685c2.293-3.385 3.228-8.3 3.228-16.969 0-4.572 1.966-7.618 3.873-7.922l.085-.012a1.579 1.579 0 0 0 1.294-.822c1.255-2.416 4.851-3.766 8.747-3.285a11.242 11.242 0 0 1 9.862 8.534 20.718 20.718 0 0 1 .465 3.508 71.171 71.171 0 0 0 .335 7.7 1.029 1.029 0 0 0 2.046-.225 69.631 69.631 0 0 1-.322-7.508v-.063a22.662 22.662 0 0 0-.517-3.886 13.26 13.26 0 0 0-11.613-10.1c-4.679-.579-8.928 1.074-10.688 4.127h-.021c-3.246.519-5.6 4.7-5.6 9.953 0 8.22-.833 12.8-2.873 15.814a3.025 3.025 0 0 0-.726 2.724 2.476 2.476 0 0 0 2.084 1.226l.147.03c.188.037.365.076.534.117a10.5 10.5 0 0 0-1.218 3.9L.956 60.828a1.893 1.893 0 0 0 .357 1.549 1.956 1.956 0 0 0 1.516.554h21.4a7.647 7.647 0 0 0-.1 1.244v2a1.643 1.643 0 0 0 1.641 1.641h19.956a1.643 1.643 0 0 0 1.641-1.641v-2a7.493 7.493 0 0 0-.1-1.244h21.57a1.687 1.687 0 0 0 1.884-2.11zm-17.9-14.865-.037.026c-.42.311-.624.377-.722.377h-.012a.045.045 0 0 1-.014 0c-.1 0-.3-.066-.722-.377a.362.362 0 0 0-.037-.026l-3.861-2.617a5.378 5.378 0 0 0 .854-1.439c.217.1.436.187.657.269a8.154 8.154 0 0 0 6.247 0c.221-.082.44-.174.658-.27a5.394 5.394 0 0 0 .852 1.438zM46.03 16.681a1.029 1.029 0 0 0 .725-.4 6 6 0 0 1 4.916-2 12.033 12.033 0 0 1 3.807.651c3.038 1.034 6.585 3.64 6.585 7.584v4.232h-.98c-1.642 0-2.667-.961-3.964-2.179-1.565-1.468-3.34-3.133-6.51-3.133h-3.5c-2.786 0-3.244 2.24-3.548 3.722-.323 1.576-.547 2.225-1.547 2.367v-3.537c-.052-3.166.606-7.005 4.016-7.307zm-4.016 13.9v-.985c2.788-.242 3.252-2.5 3.563-4.021.345-1.683.527-2.077 1.531-2.077h3.5c2.356 0 3.69 1.251 5.1 2.576 1.367 1.282 2.917 2.736 5.372 2.736h.98v1.772c0 3.644-3.554 8.159-7.606 9.662a6.118 6.118 0 0 1-4.814 0c-4.061-1.511-7.626-6.026-7.626-9.665zm-12.4 14.075A6.341 6.341 0 0 1 41.407 43.5a7.657 7.657 0 0 1 .687 1.939c.054.246.1.5.13.764a2.728 2.728 0 0 1-.72-.542 8.242 8.242 0 0 1-.187-.187 2.9 2.9 0 0 0-1.983-1.078 4 4 0 0 0-1.264.172c-.412.11-.822.23-1.235.337a3.523 3.523 0 0 1-1.346.184 16.094 16.094 0 0 1-1.933-.477 3.43 3.43 0 0 0-2.057-.087 3.539 3.539 0 0 0-1.317.951 3.343 3.343 0 0 1-.9.727 7.815 7.815 0 0 1 .335-1.549zM29.2 48.4a4.736 4.736 0 0 0 2.456-1.486c.154-.158.334-.4.559-.456a1.56 1.56 0 0 1 .729.119c.619.163 1.235.347 1.862.478a4.345 4.345 0 0 0 1.53.066A15.716 15.716 0 0 0 38.1 46.7l.551-.146a2.328 2.328 0 0 1 .5-.107c.3-.01.509.278.7.469a4.755 4.755 0 0 0 2.455 1.484v1.438c0 2.342-2.39 5.362-5.016 6.335a4.64 4.64 0 0 1-1.273.3 4.078 4.078 0 0 1-1.808-.306c-.073-.028-.144-.055-.217-.085-2.536-1.052-4.794-3.969-4.794-6.248V48.4zm9.881 10.79-2.822 1.657-.038.023c-.454.294-.473.294-.936 0l-.036-.022-1.734-1.018-1.088-.638a3.3 3.3 0 0 0 .9-1.159c.058.023.115.048.174.07.077.029.154.056.229.082a6.2 6.2 0 0 0 2.028.365 6.389 6.389 0 0 0 2.256-.447c.059-.022.117-.047.176-.07a3.28 3.28 0 0 0 .889 1.156zm-28.833-26.4v-1.926a5.543 5.543 0 0 0 3.052-1.788c.589-.6.73-.744 1.421-.564.473.121.875.228 1.224.321a9.812 9.812 0 0 0 2.5.482 9.812 9.812 0 0 0 2.5-.482c.347-.093.749-.2 1.224-.322.689-.177.829-.036 1.416.565a5.565 5.565 0 0 0 3.058 1.788v1.928c0 2.982-2.92 6.682-6.247 7.918a5.53 5.53 0 0 1-1.952.4 5.559 5.559 0 0 1-1.957-.4c-3.325-1.237-6.242-4.937-6.242-7.919zM23.012 43.5l-3.821 2.588-.037.026c-.663.494-.756.494-1.419 0l-.038-.026-3.82-2.588a5.227 5.227 0 0 0 .805-1.343 9.947 9.947 0 0 0 1.089.483 7.543 7.543 0 0 0 2.673.528 7.535 7.535 0 0 0 2.669-.528 10.541 10.541 0 0 0 1.092-.483 5.212 5.212 0 0 0 .807 1.343zm1.983 17.373H11.108V56.5a1.029 1.029 0 0 0-2.058 0v4.373H3.026l1.188-9.223a7.675 7.675 0 0 1 1.508-3.961.993.993 0 0 0 .152-.177c1.406-1.605 3.537-2.213 6-2.884l4.654 3.152a3.245 3.245 0 0 0 1.92.764 3.245 3.245 0 0 0 1.919-.764l4.653-3.152c.807.221 1.581.435 2.317.689a12.261 12.261 0 0 0-.195 2.2v2.32c0 2.562 1.861 5.492 4.366 7.217-.122.266-.276.517-.461.569l-.494.133c-.255.067-.517.137-.786.213l-.051.015c-1.727.489-3.641 1.203-4.721 2.889zm20.314 4.889H26.19v-1.587c0-2.507 1.369-3.378 3.689-4.09L33.7 62.33a1.58 1.58 0 0 0 .933.538 2.524 2.524 0 0 0 1.117.284 2.419 2.419 0 0 0 .977-.221 4.04 4.04 0 0 0 .587-.32l2.961-1.738 1.346-.79a9.186 9.186 0 0 1 1.958.79 3.144 3.144 0 0 1 1.593 2.058 5.218 5.218 0 0 1 .136 1.244v1.586z" transform="translate(0 2.089)" style="fill:#333"/>
        <path data-name="Path 12961" d="M14.256 34.778a2.88 2.88 0 0 0 2.051.851 2.872 2.872 0 0 0 2.047-.853 1.029 1.029 0 0 0-1.46-1.451.827.827 0 0 1-.59.246.837.837 0 0 1-.6-.248 1.029 1.029 0 1 0-1.456 1.455z" transform="translate(2.299 5.641)" style="fill:#333"/>
        <path data-name="Path 12962" d="M12.13 30.4a.573.573 0 0 1 .782 0 1.029 1.029 0 0 0 1.432-1.478 2.64 2.64 0 0 0-3.646 0A1.029 1.029 0 0 0 12.13 30.4z" transform="translate(1.689 4.816)" style="fill:#333"/>
        <path data-name="Path 12963" d="M19.642 30.4a.567.567 0 0 1 .776 0 1.029 1.029 0 0 0 1.437-1.474 2.633 2.633 0 0 0-3.645 0 1.029 1.029 0 0 0 1.432 1.474z" transform="translate(2.972 4.816)" style="fill:#333"/>
        <path data-name="Path 12964" d="m22.614 11.15 7.029 6.973a1.039 1.039 0 0 0 .09.08l.079.062a1.734 1.734 0 0 0 1.06.485h.06a1.73 1.73 0 0 0 1.054-.484l.081-.064a1.058 1.058 0 0 0 .09-.08l7.029-6.973.016-.016a6.733 6.733 0 0 0 0-9.267C37.09-.32 33.538-.216 30.9 2.094c-2.64-2.31-6.193-2.414-8.3-.227a6.733 6.733 0 0 0 0 9.266zm1.465-7.85c1.534-1.589 4-.979 5.528.4l.256.239a1.465 1.465 0 0 0 1.04.531 1.432 1.432 0 0 0 1.023-.518c.07-.067.157-.15.269-.251 1.534-1.382 3.992-1.992 5.526-.4a4.657 4.657 0 0 1 .008 6.4l-6.829 6.77L24.071 9.7a4.657 4.657 0 0 1 .008-6.4z" transform="translate(3.459 .05)" style="fill:#d24350"/>
    </g>
</svg>
