<svg xmlns="http://www.w3.org/2000/svg" width="166.197" height="30.471" viewBox="0 0 166.197 30.471">
    <g data-name="Group 17726">
        <path data-name="Path 202" d="M15.239 0h-.008A15.226 15.226 0 0 0 2.9 24.165L1 29.825l5.856-1.872A15.233 15.233 0 1 0 15.239 0z" style="fill:#4caf50"/>
        <path data-name="Path 203" d="M21.073 18.205a4.3 4.3 0 0 1-2.99 2.15c-.8.169-1.836.3-5.336-1.146-4.477-1.855-7.361-6.4-7.585-6.7a8.7 8.7 0 0 1-1.809-4.6A4.864 4.864 0 0 1 4.91 4.206a2.214 2.214 0 0 1 1.558-.547c.189 0 .358.01.51.017.448.019.672.046.967.752.368.886 1.263 3.072 1.369 3.3a.907.907 0 0 1 .065.825 2.633 2.633 0 0 1-.493.7c-.225.259-.438.457-.663.735-.206.242-.438.5-.179.948A13.523 13.523 0 0 0 10.516 14a11.2 11.2 0 0 0 3.573 2.2.963.963 0 0 0 1.074-.169 18.434 18.434 0 0 0 1.19-1.577.85.85 0 0 1 1.093-.331c.411.143 2.588 1.219 3.036 1.442s.743.331.851.52a3.794 3.794 0 0 1-.26 2.12z" transform="translate(3.032 3.309)" style="fill:#fff"/>
        <text data-name="WhatsApp" transform="translate(39.198 23.162)" style="font-size:28px;font-family:MyriadPro-Semibold,Myriad Pro;font-weight:600;fill:#4caf50"><tspan x="0" y="0">WhatsApp</tspan></text>
    </g>
</svg>
