<svg xmlns="http://www.w3.org/2000/svg" width="87.202" height="62.731" viewBox="0 0 87.202 62.731">
    <g data-name="Group 17968">
        <path data-name="Path 12876" d="M4279.214-7791.443h4.69v5.968l7.616.93v4.235l-7.62 1.31v6.018h-4.69V-7779h-7.11v-5.549l7.115-.93z" transform="translate(-4238.24 7799.992)" style="fill:#f37b89"/>
        <g data-name="3056687">
            <path data-name="Path 12874" d="M30.506-439.8a3.685 3.685 0 0 0-2.538 2.385 21.884 21.884 0 0 0-.187 3.782v3.22H15.77c-8.177 0-12.282.068-12.879.187A3.621 3.621 0 0 0 .268-427.8a14.838 14.838 0 0 0-.068 5.072 3.969 3.969 0 0 0 2.163 2.572 9.591 9.591 0 0 0 2.215.2l1.567-.017v2.164c0 1.925.034 2.18.341 2.521a1.337 1.337 0 0 0 1.874 0c.307-.341.341-.6.341-2.555v-2.181H27.78v5.264c-.375 0 0 9.966 0 9.966s-.544 8.535 0 8.535v16.439H8.7v-15.468c0-15.332 0-15.468-.341-15.843a1.3 1.3 0 0 0-.937-.375 1.3 1.3 0 0 0-.937.375c-.341.375-.341.511-.341 15.843v15.468H.711l-.341.443a1.17 1.17 0 0 0 .085 1.721l.443.443 42.793-.1 42.776-.119.392-.443a1.153 1.153 0 0 0 .051-1.618c-.324-.392-.426-.409-3.066-.46L81.1-380v-2.181c0-1.959-.034-2.232-.358-2.64a1.274 1.274 0 0 0-1.857-.1c-.307.307-.341.562-.341 2.641v2.3H59.3l.034-8.143.051-8.126-.085-18.49v-5.281h19.041l.1.375c.051.221.1 7.1.1 15.315 0 14.259.017 14.957.307 15.332a1.213 1.213 0 0 0 1.857-.085l.392-.46v-30.477h1.584c1.84 0 2.64-.29 3.475-1.244.733-.835.9-1.55.9-3.952s-.17-3.117-.9-3.952c-1.039-1.175-1.329-1.244-6.61-1.244-4.685 0-4.7 0-5.059.392a1.2 1.2 0 0 0 .068 1.806c.426.341.664.358 4.94.358 5.417 0 5.008-.221 5.008 2.675 0 1.7-.034 1.959-.341 2.266-.341.341-.562.341-12.606.341H59.3v-5.281h5.3a46.754 46.754 0 0 0 5.588-.17 1.33 1.33 0 0 0 .511-.664.937.937 0 0 0-.051-1.005 1.629 1.629 0 0 0-.528-.613c-.153-.051-2.658-.1-5.554-.1H59.3v-3.373c0-2.879-.051-3.458-.324-4.037a3.8 3.8 0 0 0-2.181-1.942c-.753-.226-25.608-.241-26.289-.041zm25.86 2.675.375.256v56.881h-3.05l-.051-11.7-.051-11.72-.392-.818a4.672 4.672 0 0 0-1.022-1.312c-1.192-.988-1.7-1.056-8.927-.988-5.843.051-6.593.085-7.206.358a4.2 4.2 0 0 0-2.01 1.908c-.375.681-.375.767-.426 12.555l-.051 11.891h-1.5c-1.414 0-1.516-.017-1.618-.375-.051-.221-.1-13.015-.1-28.466 0-27.836 0-28.057.341-28.4s.562-.341 12.828-.341c11.019-.004 12.519.034 12.859.273zm-28.586 11.91v2.64H15.447c-11.243 0-12.351-.017-12.555-.29a10.406 10.406 0 0 1-.153-4.31 1.36 1.36 0 0 1 .562-.511c.2-.085 5.792-.153 12.436-.153l12.044-.017zm22.4 21.447a1.119 1.119 0 0 1 .75.92c.136.46.17 4.327.153 11.805l-.05 11.143h-14.82l-.051-11.363c-.017-7.257.017-11.516.136-11.805.324-.869.75-.92 7.291-.937 4.821-.001 6.111.05 6.592.237z" transform="translate(-.015 439.941)" style="fill:#6f7e8e"/>
            <path data-name="Path 12875" d="M201.024-397.693c-1.158.579-1.295.954-1.346 3.782l-.051 2.521-2.5.068c-2.266.051-2.555.085-3.032.426-.886.63-1.09 1.295-1.09 3.526 0 2.181.17 2.811.92 3.509.46.409.562.426 3.1.477l2.623.051V-381c0 2.64.187 3.237 1.175 3.9.528.358.767.392 2.862.392 2.555 0 3.066-.153 3.629-1.073.29-.477.341-.869.341-3.066v-2.5h2.4c3.884 0 4.242-.324 4.242-3.952 0-2.112-.034-2.351-.392-2.879-.664-1.005-1.244-1.175-3.9-1.175h-2.355v-2.453c0-2.249-.034-2.487-.392-3.015-.647-.971-1.278-1.175-3.611-1.175a5.71 5.71 0 0 0-2.623.303zm4.071 5.145c0 2.862 0 2.913.426 3.322.409.426.46.426 3.322.426h2.9v2.9h-2.726c-2.9 0-3.424.1-3.731.8a14.413 14.413 0 0 0-.187 3.117v2.726h-2.9v-2.879c0-3.918.256-3.663-3.646-3.731l-3-.051v-2.882h2.93c3.952 0 3.714.239 3.714-3.7v-2.947h2.9z" transform="translate(-160.124 405.145)" style="fill:#6f7e8e"/>
        </g>
    </g>
</svg>
