<svg xmlns="http://www.w3.org/2000/svg" width="47.656" height="43.392" viewBox="0 0 47.656 43.392">
    <g data-name="Group 17867">
        <path data-name="Path 11767" d="M7.5 24.791A11.176 11.176 0 0 1 18.489 13.4a11.014 11.014 0 0 1 7.469 2.843 3.156 3.156 0 0 0 4.213 0A11.014 11.014 0 0 1 37.64 13.4a11.176 11.176 0 0 1 10.988 11.391c-.132 8.853-5.468 11.2-5.468 18.7 0 7.445-3.44 12-6.806 12-3.559 0-5.614-4.159-7.04-7.733a1.346 1.346 0 0 0-2.5 0c-1.426 3.574-3.481 7.733-7.04 7.733-3.366 0-6.806-4.554-6.806-12 0-7.5-5.336-9.845-5.468-18.7z" transform="translate(-6.849 -12.746)" style="fill:#ea5d6e"/>
        <path data-name="Path 11768" d="M15.318 19.081A11.258 11.258 0 0 0 7.5 29.982c.132 8.853 5.468 11.2 5.468 18.7 0 7.445 3.44 12 6.806 12 3.29 0 5.295-3.553 6.705-6.914-8.79-3.143-14.6-24.754-11.163-34.684z" transform="translate(-6.849 -17.937)" style="fill:#fff"/>
        <path data-name="Path 11774" d="M9.417 0A9.417 9.417 0 1 1 0 9.417 9.417 9.417 0 0 1 9.417 0z" transform="rotate(-45 43.951 -11.53)" style="fill:#ea5d6e"/>
        <path data-name="Path 11772" d="M339.073 264.131V261.4a.493.493 0 0 0-.493-.493h-2.733a.493.493 0 0 0-.493.493v2.733a.493.493 0 0 1-.493.493h-2.733a.493.493 0 0 0-.493.493v2.733a.493.493 0 0 0 .493.493h2.733a.493.493 0 0 1 .493.493v2.733a.493.493 0 0 0 .493.493h2.733a.493.493 0 0 0 .493-.493v-2.733a.493.493 0 0 1 .493-.493h2.734a.493.493 0 0 0 .493-.493v-2.733a.493.493 0 0 0-.493-.493h-2.733a.493.493 0 0 1-.494-.495z" transform="translate(-302.865 -238.783)" style="fill:#fff"/>
        <path data-name="Path 11773" d="M7.536 42.2a19.091 19.091 0 0 1-.765-5.555c0-7.721-5.339-10.037-5.468-18.707A10.519 10.519 0 0 1 11.644 7.2a10.371 10.371 0 0 1 7.029 2.675 3.787 3.787 0 0 0 5.084 0 10.368 10.368 0 0 1 7.03-2.675 10.182 10.182 0 0 1 6.081 2.052.651.651 0 0 0 .78-1.041A11.474 11.474 0 0 0 30.8 5.9a11.68 11.68 0 0 0-7.909 3.01 2.52 2.52 0 0 1-3.342 0 11.676 11.676 0 0 0-7.841-3.01h-.072A11.819 11.819 0 0 0 0 17.952c.136 9.031 5.47 11.423 5.47 18.688a20.385 20.385 0 0 0 .822 5.935.651.651 0 1 0 1.244-.375zM40.7 25.79a19.126 19.126 0 0 0 1.734-7.838 12.011 12.011 0 0 0-2.436-7.412.651.651 0 0 0-1.036.787 10.7 10.7 0 0 1 2.171 6.605 17.843 17.843 0 0 1-1.516 7.088 10.066 10.066 0 1 0-5.258 18.645c-1.159 2.655-3 4.323-4.85 4.323-3.1 0-4.991-3.7-6.436-7.323a2 2 0 0 0-3.707 0c-1.445 3.621-3.339 7.323-6.436 7.323-1.534 0-3.076-1.13-4.233-3.1a.651.651 0 0 0-1.122.659c1.4 2.378 3.348 3.742 5.355 3.742 3.986 0 6.178-4.468 7.644-8.142a.7.7 0 0 1 1.289 0c1.465 3.673 3.655 8.142 7.644 8.142 2.564 0 4.953-2.184 6.3-5.73A10.063 10.063 0 0 0 40.7 25.79zm-6.352 16.574a8.766 8.766 0 1 1 8.766-8.764 8.776 8.776 0 0 1-8.766 8.764zm5.086-11.276h-2.576v-2.576a1.145 1.145 0 0 0-1.144-1.144h-2.732a1.145 1.145 0 0 0-1.144 1.144v2.576h-2.576a1.145 1.145 0 0 0-1.144 1.144v2.733a1.145 1.145 0 0 0 1.144 1.144h2.576v2.576a1.145 1.145 0 0 0 1.144 1.144h2.733a1.145 1.145 0 0 0 1.144-1.144v-2.577h2.576a1.145 1.145 0 0 0 1.144-1.144v-2.732a1.145 1.145 0 0 0-1.145-1.144zm-.157 3.72H36.7a1.145 1.145 0 0 0-1.144 1.144v2.576h-2.417v-2.577A1.145 1.145 0 0 0 32 34.807h-2.58v-2.418H32a1.145 1.145 0 0 0 1.144-1.144V28.67h2.418v2.576a1.145 1.145 0 0 0 1.138 1.143h2.576z" transform="translate(0 -5.897)" style="fill:#6f7071"/>
    </g>
</svg>
