<svg xmlns="http://www.w3.org/2000/svg" width="46.306" height="42.163" viewBox="0 0 46.306 42.163">
    <g data-name="2885144">
        <path data-name="Path 11767" d="M7.5 24.468A10.86 10.86 0 0 1 18.178 13.4a10.7 10.7 0 0 1 7.257 2.762 3.066 3.066 0 0 0 4.094 0 10.7 10.7 0 0 1 7.258-2.762 10.86 10.86 0 0 1 10.676 11.068c-.128 8.6-5.313 10.884-5.313 18.168 0 7.234-3.343 11.659-6.614 11.659-3.459 0-5.455-4.041-6.84-7.514a1.308 1.308 0 0 0-2.427 0c-1.385 3.473-3.382 7.514-6.84 7.514-3.271 0-6.614-4.425-6.614-11.659 0-7.284-5.185-9.566-5.313-18.168z" transform="translate(-6.868 -12.765)" style="fill:#f37b89"/>
        <path data-name="Path 11768" d="M15.1 19.081a10.939 10.939 0 0 0-7.6 10.592c.128 8.6 5.313 10.884 5.313 18.168 0 7.234 3.343 11.659 6.614 11.659 3.2 0 5.145-3.453 6.515-6.718C17.4 49.729 11.756 28.73 15.1 19.081z" transform="translate(-6.868 -17.97)" style="fill:#fff"/>
        <path data-name="Path 11774" d="M9.15 0A9.15 9.15 0 1 1 0 9.15 9.15 9.15 0 0 1 9.15 0z" transform="rotate(-45 42.706 -11.204)" style="fill:#f37b89"/>
        <path data-name="Path 11772" d="M338.862 264.04v-2.656a.479.479 0 0 0-.479-.479h-2.656a.479.479 0 0 0-.479.479v2.656a.479.479 0 0 1-.479.479h-2.656a.479.479 0 0 0-.479.479v2.655a.479.479 0 0 0 .479.479h2.656a.479.479 0 0 1 .479.479v2.655a.479.479 0 0 0 .479.479h2.656a.479.479 0 0 0 .479-.479v-2.655a.479.479 0 0 1 .479-.479H342a.479.479 0 0 0 .479-.479V265a.479.479 0 0 0-.479-.479h-2.655a.479.479 0 0 1-.483-.481z" transform="translate(-303.68 -239.411)" style="fill:#fff"/>
        <path data-name="Path 11773" d="M7.323 41.167a18.55 18.55 0 0 1-.744-5.4c0-7.5-5.188-9.752-5.313-18.177A10.221 10.221 0 0 1 11.314 7.162a10.078 10.078 0 0 1 6.83 2.6 3.679 3.679 0 0 0 4.94 0 10.074 10.074 0 0 1 6.83-2.6 9.893 9.893 0 0 1 5.909 1.994.632.632 0 0 0 .758-1.012A11.149 11.149 0 0 0 29.923 5.9a11.349 11.349 0 0 0-7.685 2.925 2.448 2.448 0 0 1-3.247 0A11.345 11.345 0 0 0 11.376 5.9h-.07A11.484 11.484 0 0 0 0 17.611c.131 8.775 5.313 11.1 5.313 18.158a19.808 19.808 0 0 0 .8 5.767.632.632 0 1 0 1.209-.369zm32.22-15.94a18.584 18.584 0 0 0 1.685-7.616 11.671 11.671 0 0 0-2.367-7.2.632.632 0 1 0-1.007.765 10.4 10.4 0 0 1 2.109 6.418 17.338 17.338 0 0 1-1.473 6.887A9.781 9.781 0 1 0 33.381 42.6c-1.127 2.58-2.916 4.2-4.713 4.2-3.009 0-4.85-3.6-6.253-7.116a1.941 1.941 0 0 0-3.6 0C17.41 43.2 15.569 46.8 12.56 46.8c-1.49 0-2.989-1.1-4.113-3.012a.632.632 0 0 0-1.09.64c1.357 2.311 3.253 3.636 5.2 3.636 3.873 0 6-4.341 7.428-7.911a.676.676 0 0 1 1.253 0c1.424 3.569 3.551 7.911 7.428 7.911 2.492 0 4.812-2.123 6.12-5.567a9.778 9.778 0 0 0 4.754-17.266zm-6.168 16.1a8.518 8.518 0 1 1 8.518-8.518 8.527 8.527 0 0 1-8.518 8.522zm4.942-10.957h-2.5v-2.5a1.113 1.113 0 0 0-1.117-1.11h-2.653a1.113 1.113 0 0 0-1.112 1.111v2.5h-2.5a1.113 1.113 0 0 0-1.111 1.111v2.655a1.113 1.113 0 0 0 1.111 1.111h2.5v2.5a1.113 1.113 0 0 0 1.112 1.112H34.7a1.113 1.113 0 0 0 1.111-1.112v-2.5h2.5a1.113 1.113 0 0 0 1.111-1.111v-2.651a1.113 1.113 0 0 0-1.105-1.112zm-.153 3.614h-2.5A1.113 1.113 0 0 0 34.55 35.1v2.5H32.2v-2.5a1.113 1.113 0 0 0-1.111-1.111h-2.5v-2.35h2.5a1.113 1.113 0 0 0 1.111-1.112v-2.5h2.35v2.5a1.113 1.113 0 0 0 1.112 1.111h2.5z" transform="translate(0 -5.898)" style="fill:#6f7e8e"/>
    </g>
</svg>
