<svg xmlns="http://www.w3.org/2000/svg" width="46.342" height="45.595" viewBox="0 0 46.342 45.595">
    <g data-name="Group 17680">
        <g data-name="3908729">
            <path data-name="Path 11717" d="M26.814 44.708a13.54 13.54 0 0 1-.341-2.974 13.365 13.365 0 0 1 3.941-9.513l.8-.8-3.155-3.156a2.3 2.3 0 0 0-3.171 0l-3.7 3.7a7.467 7.467 0 0 0 5.626 12.744z" transform="translate(-5.545 -8.099)" style="fill:#f37b89"/>
            <path data-name="Path 11718" d="M44.544 25.779a2.3 2.3 0 0 0-3.171 0C36.847 31.073 31 33.735 31 41.106a11.959 11.959 0 1 0 20.415-8.456zm4.871 22.589a9.74 9.74 0 0 1-1.6 1.157.747.747 0 0 1-.749-1.293 8.275 8.275 0 0 0 1.352-.979.747.747 0 0 1 .994 1.116zm3.261-7.262a9.7 9.7 0 0 1-1.3 4.859.747.747 0 1 1-1.293-.749 8.21 8.21 0 0 0 1.1-4.11.747.747 0 1 1 1.495 0z" transform="translate(-8.577 -7.471)" style="fill:#f37b89"/>
            <path data-name="Path 11719" d="M34.635 7.48H20.807L17 2.4a2.254 2.254 0 0 0-1.8-.9H9.222a2.253 2.253 0 0 0-1.794.9L3.616 7.48H1.747a.747.747 0 0 0 0 1.495H3.99a.747.747 0 0 0 .6-.3l4.034-5.381a.751.751 0 0 1 .6-.3H15.2a.752.752 0 0 1 .6.3l3.139 4.186h-8.222a.747.747 0 0 0 0 1.495h23.918a2.242 2.242 0 1 1 0 4.485H19.686a.747.747 0 1 0 0 1.495h4.485v.745a2.245 2.245 0 0 1-2.242 2.242h-4.485a.747.747 0 0 0 0 1.495h4.485a3.737 3.737 0 0 0 .747-.075v.823a2.245 2.245 0 0 1-2.242 2.242h-4.485a.747.747 0 1 0 0 1.495h4.485a3.737 3.737 0 0 0 .747-.075v.823a2.245 2.245 0 0 1-2.242 2.242H9.85a2.24 2.24 0 0 1-1.7-.783l-3.59-4.188a.747.747 0 0 0-.568-.261H1.747a.747.747 0 0 0 0 1.495h1.9L7.012 27.1a3.733 3.733 0 0 0 2.838 1.308h9.089a3.742 3.742 0 0 0 3.737-3.737V23.16a3.722 3.722 0 0 0 1.5-2.973v-1.512a3.722 3.722 0 0 0 1.5-2.973v-.747h8.969a3.737 3.737 0 0 0 0-7.474z" transform="translate(-1 -1.5)" style="fill:#6f7e8e"/>
            <path data-name="Path 11720" d="M40.882 22.613a.747.747 0 0 0-1.057 0l-3.964 3.964a6.353 6.353 0 1 0 8.985 0zm-.528 13.315a4.858 4.858 0 0 1-3.435-8.294l3.434-3.434 3.435 3.435a4.858 4.858 0 0 1-3.435 8.294z" transform="translate(-9.334 -6.777)" style="fill:#6f7e8e"/>
            <path data-name="Path 11721" d="M45.242 33a.747.747 0 0 0-.747.747 1.876 1.876 0 0 1-1.068 1.69.748.748 0 1 0 .642 1.35 3.372 3.372 0 0 0 1.922-3.04.747.747 0 0 0-.749-.747z" transform="translate(-11.607 -9.456)" style="fill:#6f7e8e"/>
        </g>
    </g>
</svg>
