<svg xmlns="http://www.w3.org/2000/svg" width="39.718" height="59.104" viewBox="0 0 39.718 59.104">
    <path data-name="Path 12386" d="M101.91-511.516a10.505 10.505 0 0 0-6.191 3.765c-1.813 2.264-2.472 4.516-2.472 8.559a3.182 3.182 0 0 1-.37 2.01 3.559 3.559 0 0 0-.208 2.945 3.84 3.84 0 0 0 2.945 2.368c.208 0 .266.127.439.832a7.936 7.936 0 0 0 2.044 3.719l.924.97v1.929l-4.828 2.01c-6.064 2.53-6.63 2.818-7.693 3.869a7.163 7.163 0 0 0-2.275 4.77c-.069.728-.1 4.458-.081 10.326l.035 9.194.347.554a2.349 2.349 0 0 0 .855.832l.508.266h11.1c8.929-.012 11.135-.035 11.3-.162a.9.9 0 0 0 .3-.982c-.2-.531-.393-.578-2.137-.589H104.8v-9.206l.7-.97c.474-.658.774-.97.924-.959.116 0 .485.012.8.023l.578.023v.739c0 .681.023.762.358 1.04s.427.3 1.617.3c1.813 0 2.183-.266 2.183-1.571v-.508h.439a3.643 3.643 0 0 0 .855-.127c.647-.173.785-.531.785-2.01 0-1.733-.185-2.01-1.34-2.021h-.7l-.058-.728c-.069-.843-.254-1.19-.693-1.34-.185-.069-.323-.139-.323-.173a4.093 4.093 0 0 1 .358-.578 2 2 0 0 0-.15-2.634c-.127-.173-.058-.289.508-.82a2.216 2.216 0 0 0 .728-1.016 22.514 22.514 0 0 0-.023-2.3c-.058-1.051-.092-1.917-.081-1.94.046-.069 6.422 2.622 6.93 2.922a7.3 7.3 0 0 1 2.1 2.183c.728 1.271.751 1.455.8 6.133.058 4.135.058 4.285.3 4.528a.792.792 0 0 0 1.351-.358 73.937 73.937 0 0 0 0-8.189 7.131 7.131 0 0 0-2.264-4.655c-1.063-1.051-1.64-1.34-7.693-3.869l-4.828-2v-1.941l.924-.97a7.936 7.936 0 0 0 2.044-3.719c.173-.7.231-.832.439-.832a3.758 3.758 0 0 0 2.772-2.021 3.644 3.644 0 0 0-.231-3.627c-.289-.393-.289-.427-.289-2.576a11.321 11.321 0 0 0-.693-4.805 10.736 10.736 0 0 0-7.358-6.5 11.508 11.508 0 0 0-4.659-.113zm4.331 1.8a13.62 13.62 0 0 1 1.79.716 6.666 6.666 0 0 1 2.206 1.652 6.344 6.344 0 0 1 1.7 2.31 8.542 8.542 0 0 1 .947 4.435c0 1.282-.035 1.571-.162 1.571-.358 0-.531-.162-.647-.566a15.027 15.027 0 0 0-3.026-3.4 1.61 1.61 0 0 0-1.721.15 16.963 16.963 0 0 1-8.7 2.553 9.3 9.3 0 0 0-1.709.115 1.913 1.913 0 0 0-1.04.9c-.012.069-.208.162-.427.2l-.381.081.046-1.952a8.005 8.005 0 0 1 .37-2.9 8.893 8.893 0 0 1 8.79-6.1 10.907 10.907 0 0 1 1.965.237zm3.176 9.495 1.063 1.132-.058 3.7c-.035 3.35-.069 3.754-.277 4.331a6.428 6.428 0 0 1-1.64 2.657 5.586 5.586 0 0 1-2.853 1.617 6.224 6.224 0 0 1-6.237-1.686 6.536 6.536 0 0 1-1.19-1.571c-.6-1.224-.7-1.987-.7-5.44v-3.084h1.305a17.709 17.709 0 0 0 8.34-2.241 6.847 6.847 0 0 1 1.063-.52 6.976 6.976 0 0 1 1.185 1.107zm-13.63 4.713c0 2.1 0 2.114-.693 1.64a1.739 1.739 0 0 1-.889-1.49 1.753 1.753 0 0 1 1-1.8c.277-.139.531-.254.543-.254s.04.854.04 1.905zm17.464-1.363a2.319 2.319 0 0 1 .52 1.675 1.785 1.785 0 0 1-.889 1.328c-.693.474-.693.462-.693-1.64v-1.906l.427.173a2.8 2.8 0 0 1 .637.371zm-11.481 11.782a7.415 7.415 0 0 0 2.218.208 7.167 7.167 0 0 0 3.061-.474c.15-.058.173.058.173.7a11.985 11.985 0 0 1-.589 3.084l-.116.439h-5.057l-.116-.439a11.986 11.986 0 0 1-.589-3.084c0-.647.023-.762.173-.7.104.036.472.163.844.267zm-.566 10.176c1.028 4.147 1.86 7.693 1.837 7.878-.035.3-.312-.035-2.46-2.957-1.328-1.825-2.46-3.384-2.518-3.465s.1-.4.439-.866c.751-1.016.716-1.236-.254-2.148a5.037 5.037 0 0 0-.878-.728 22.3 22.3 0 0 1 .1-3.95l.069-.774.82-.346a2.526 2.526 0 0 1 .9-.266c.052.046.919 3.476 1.947 7.623zm8.374-7.358.855.358.069.993c.035.554.092 1.606.127 2.333l.069 1.328-.474.346c-.728.52-1.271 1.167-1.271 1.513s.15.658.658 1.282c.254.312.37.543.312.635-.081.127-4.863 6.653-4.967 6.78-.266.312.081-1.282 1.744-8.016 1.086-4.355 1.975-7.912 2-7.912s.418.165.88.361zm-13.953 3.188a9.642 9.642 0 0 0 .046 2.4 3.255 3.255 0 0 0 .728.889c.52.474.578.578.462.751-.647.912-.774 1.675-.393 2.31.127.2 1.663 2.31 3.407 4.69l3.188 4.331v9.379H92.9v-6.515c0-4.239-.046-6.63-.116-6.838a.779.779 0 0 0-1.317-.381l-.3.231v13.5h-2.448a17.929 17.929 0 0 1-2.634-.116c-.15-.092-.173-1.317-.173-9.841 0-9.125.012-9.783.208-10.43a6.383 6.383 0 0 1 2.472-3.338c.358-.243 6.849-3.061 7.069-3.072.023.007.012.933-.034 2.051zm10.442-.254c0 .116-1.964 7.97-2.044 8.143-.046.127-2.079-7.67-2.114-8.12a13.252 13.252 0 0 1 2.079-.081 18.047 18.047 0 0 1 2.08.059zm4.158 10.026a2.026 2.026 0 0 0 .173.97 1.956 1.956 0 0 0 1.478.5c.393 0 .427.023.427.347v.346h-.751c-.67 0-.8.035-1.04.3s-.289.427-.289 1.04v.739h-.347c-.335 0-.347-.023-.347-.52a1.75 1.75 0 0 0-.554-1.432 2.335 2.335 0 0 0-.82-.127c-.323 0-.589-.035-.589-.092 0-.277.381-.578.843-.647.751-.115 1.016-.451 1.086-1.386.069-.751.069-.762.393-.762s.339-.003.339.725z" transform="translate(-84.138 511.701)" style="fill:#6f7e8e"/>
    <path data-name="Path 12387" d="M176.253-47.769a.918.918 0 0 0 .012 1.224c.231.208.45.219 2.992.219s2.761-.012 2.992-.219a.918.918 0 0 0 .012-1.224c-.219-.219-.381-.231-3-.231s-2.789.012-3.008.231z" transform="translate(-165.411 101.56)" style="fill:#6f7e8e"/>
    <path data-name="Path 12388" d="M321.482-135.732a1.18 1.18 0 0 0-.323.462c-.069.208-.116 2.6-.116 6.838v6.515h-1.721c-1.559 0-1.744.023-2.021.243a.7.7 0 0 0-.3.624.7.7 0 0 0 .3.624c.3.243.416.243 5.463.243 4.736 0 5.186-.023 5.614-.219a2.35 2.35 0 0 0 1.317-1.629 61.267 61.267 0 0 0 .012-7.7 1.016 1.016 0 0 0-.855-.612 1.1 1.1 0 0 0-.462.243l-.3.231v3.731c0 3.176-.023 3.754-.185 3.973-.173.254-.219.254-2.657.254h-2.472v-13.5l-.3-.231a.764.764 0 0 0-.994-.09z" transform="translate(-290.103 179.29)" style="fill:#6f7e8e"/>
    <path data-name="Path 12389" d="M278.66-47.8a.8.8 0 0 0-.046 1.144l.289.335 2.414.035c1.317.023 2.576 0 2.784-.035.785-.15 1.1-.924.566-1.421-.266-.243-.358-.254-3.049-.254-2.496-.004-2.784.019-2.958.196z" transform="translate(-255.956 101.56)" style="fill:#6f7e8e"/>
</svg>
