<svg xmlns="http://www.w3.org/2000/svg" width="49.673" height="52.183" viewBox="0 0 49.673 52.183">
    <g data-name="Group 17868">
        <path data-name="Path 11808" d="M60.986 19.583c5.931 3.864 8.681 12.682 7.483 20.294-1.409 8.949-8.208 15.937-15.579 17.835-4.339 1.116-12.808 1.484-18.245-2.87-1.42-1.138-3.407-3.217-5.842-2.87a5.494 5.494 0 0 0-3.382 2.219.868.868 0 0 1-1.334.025l-2.911-3.359a.871.871 0 0 1-.128-.945 11.343 11.343 0 0 1 5.194-5.628c4.094-1.91 6.777.746 10.967-.411 5.566-1.535 10.469-8.879 9.943-15.066-.51-5.99-5.863-8.032-5.536-14.452a12.9 12.9 0 0 1 1.892-5.935.867.867 0 0 1 .743-.42h2.984a.869.869 0 0 1 .785 1.243 5.91 5.91 0 0 0-.52 4.737c1.571 3.739 8.055 2.062 13.491 5.6z" transform="translate(-19.939 -7.131)" style="fill:#ea5d6e"/>
        <path data-name="Path 11809" d="M40.893 48.905c-4.923 1.359-8.076-1.762-12.887.483a11.292 11.292 0 0 0-4 3.2.859.859 0 0 1-1.317.023l-1.522-1.756a.869.869 0 0 1-.128-.945 11.348 11.348 0 0 1 5.194-5.628c4.094-1.91 6.777.746 10.967-.411 5.566-1.535 10.469-8.88 9.943-15.066-.51-5.99-5.863-8.032-5.536-14.452A12.89 12.89 0 0 1 43.5 8.421.859.859 0 0 1 44.249 8a2.416 2.416 0 0 1 2.35 3.1 13.84 13.84 0 0 0-.527 3.12c-.385 7.544 5.906 9.944 6.505 16.983.623 7.267-5.143 15.897-11.684 17.702z" transform="translate(-19.936 -7.131)" style="fill:#fff"/>
        <g data-name="Group 16982">
            <path data-name="Path 11810" d="M18.215 159.4c3.771-1.759 6.4.862 10.831-.36 5.995-1.654 11.135-9.42 10.578-15.979a13.251 13.251 0 0 0-2.511-6.395.87.87 0 1 0-1.455.953 11.73 11.73 0 0 1 2.233 5.59c.486 5.714-4.124 12.725-9.307 14.155-3.937 1.086-6.7-1.594-11.1.46a12.316 12.316 0 0 0-5.861 6.589.87.87 0 1 0 1.593.7 10.649 10.649 0 0 1 5-5.711z" transform="translate(-11.545 -121.46)" style="fill:#6f7071"/>
            <path data-name="Path 11811" d="M204.024 11.327a.87.87 0 0 0 .837-1.109 10.945 10.945 0 0 1 1.7-8.879.87.87 0 0 0-1.47-.939 12.755 12.755 0 0 0-1.9 10.294.87.87 0 0 0 .833.633z" transform="translate(-181.995)" style="fill:#6f7071"/>
            <path data-name="Path 11812" d="M85.842 11.723c-5.468-3.562-11.869-2.129-13.164-5.212-.541-1.287-.157-3.034 1.14-5.195a.87.87 0 0 0-1.491-.9c-1.6 2.662-2.019 4.937-1.252 6.763 1.819 4.33 8.5 2.528 13.818 5.995 5.338 3.477 8.323 11.649 7.1 19.43-1.283 8.15-7.426 15.194-14.937 17.128-3.692.951-12.1 1.608-17.484-2.706-1.494-1.2-3.658-3.457-6.509-3.052-1.712.244-3.26 1.408-4.6 3.46a.87.87 0 1 0 1.455.952c1.057-1.615 2.2-2.52 3.392-2.69 1.993-.284 3.768 1.56 5.176 2.688 3.441 2.757 8.136 3.794 12.584 3.794a26.46 26.46 0 0 0 6.421-.761c8.163-2.1 14.834-9.726 16.222-18.541 1.208-7.671-1.45-16.978-7.867-21.158z" transform="translate(-44.319 .001)" style="fill:#6f7071"/>
            <path data-name="Path 11813" d="M292.115 224.531a.87.87 0 0 0 .87-.9 15.856 15.856 0 0 0-.028-.576.87.87 0 1 0-1.736.114c.011.17.02.344.025.515a.87.87 0 0 0 .869.847z" transform="translate(-260.816 -198.085)" style="fill:#6f7071"/>
            <path data-name="Path 11814" d="M258.654 269.763a14.136 14.136 0 0 1-3.2 5.789.87.87 0 0 0 1.286 1.171 15.873 15.873 0 0 0 3.595-6.5.87.87 0 0 0-1.677-.462z" transform="translate(-228.733 -239.867)" style="fill:#6f7071"/>
        </g>
    </g>
</svg>
