<svg xmlns="http://www.w3.org/2000/svg" width="51.138" height="51.138" viewBox="0 0 51.138 51.138">
    <g data-name="Group 17869">
        <path data-name="Path 411" d="M286.122 236.987a7.423 7.423 0 1 0 0-11.127 2 2 0 0 0-.871-.21c-1.316 0-2.452 1.349-2.982 3.3l-1.013 1.239 1.29 1.415z" transform="translate(-252.258 -200.905)" style="fill:#ea5d6e"/>
        <path data-name="Path 412" d="M96 312v2.474a.825.825 0 0 0 .825.825h1.65a19.928 19.928 0 0 0 6.055 5.346l2.193 1.253-.529-.321a7.43 7.43 0 0 1-3.573-6.3 3.3 3.3 0 0 0-3.3-3.277z" transform="translate(-86.102 -279.832)" style="fill:#ea5d6e"/>
        <g data-name="Group 484">
            <path data-name="Path 413" d="m96.96 262.6-.455-.71a3.911 3.911 0 0 1-1.688-2.61 3.925 3.925 0 0 0-3.871-3.28 3.924 3.924 0 0 0-2.775 1.149l-1.551 1.538-.033.032-.026.022c.031.062.087.1.12.161a3.962 3.962 0 0 0 3.468 2.046h.5a4.716 4.716 0 0 1-4.283-2.6 4.127 4.127 0 0 0-5.174-2.086l-5.9 2.211-1.33-2a1.075 1.075 0 0 0-1.969.6v3.049a1.649 1.649 0 0 0 1.65 1.65h3.99a3.617 3.617 0 0 1 2.671 1.177 3.128 3.128 0 0 1 .762 2.122 7.4 7.4 0 0 0 7.29 7.422 17.871 17.871 0 0 0 9.326-2.545l4-2.4 1.347-.825-4.6-1.035z" transform="translate(-64.577 -229.606)" style="fill:#fff"/>
            <path data-name="Path 414" d="M213.376 258.729a5.3 5.3 0 0 0 4.314 2.22h4.7l-1.246-3-.07-.1a3.913 3.913 0 0 0-6.1-.707z" transform="translate(-191.377 -229.606)" style="fill:#ea5d6e"/>
        </g>
        <path data-name="Path 415" d="m212.949 33.569-.238-.358a8.4 8.4 0 0 1-1.411-4.66 11.721 11.721 0 0 1 .948-4.616l.579-1.352a11.714 11.714 0 0 0 .948-4.616V8h-3.3v9.606a11.723 11.723 0 0 1-1.237 5.241 11.724 11.724 0 0 0-1.238 5.24 15.624 15.624 0 0 0 1.117 5.8l.533 1.332z" transform="translate(-186.555 -7.175)" style="fill:#ea5d6e"/>
        <path data-name="Path 416" d="M39.591 14.022a8.257 8.257 0 0 1-8.248-8.248V0H19.8v5.774a8.257 8.257 0 0 1-8.248 8.248A11.56 11.56 0 0 0 0 25.569a25.569 25.569 0 0 0 51.138 0 11.56 11.56 0 0 0-11.547-11.547zM25.569 49.488A23.947 23.947 0 0 1 1.65 25.569a9.909 9.909 0 0 1 9.9-9.9 9.909 9.909 0 0 0 9.9-9.9V1.65h1.65V3.3h1.65V1.65h1.65v9.142a10.834 10.834 0 0 1-.88 4.291l-.58 1.353a12.469 12.469 0 0 0-1.015 4.941 9.177 9.177 0 0 0 1.123 4.4 4.671 4.671 0 0 0-1.626.848l-.088-.222a14.718 14.718 0 0 1-1.059-5.493 10.94 10.94 0 0 1 1.145-4.87 12.621 12.621 0 0 0 1.324-5.61V4.949h-1.65v5.482a10.941 10.941 0 0 1-1.15 4.869 12.621 12.621 0 0 0-1.324 5.61 16.349 16.349 0 0 0 1.176 6.1l.2.5a4.938 4.938 0 0 0-5.667-1.636l-5.285 1.982-.967-1.451A1.9 1.9 0 0 0 6.6 27.469v3.049a2.477 2.477 0 0 0 2.474 2.474v1.65a1.651 1.651 0 0 0 1.65 1.65h1.242a20.625 20.625 0 0 0 6.053 5.237l1.083.619a8.2 8.2 0 0 0 4.819 1.568 18.98 18.98 0 0 0 6.479-1.162 18.167 18.167 0 0 0 3.133-1.5l3.981-2.389A8.245 8.245 0 1 0 33.7 24.017a2.654 2.654 0 0 0-.709-.1c-1.416 0-2.663 1.079-3.421 2.9a4.706 4.706 0 0 0-2.705-1.208l-.024-.035a7.544 7.544 0 0 1-1.273-4.2 10.834 10.834 0 0 1 .88-4.291l.58-1.353a12.469 12.469 0 0 0 1.015-4.941V1.65h1.65v4.124a9.909 9.909 0 0 0 9.9 9.9 9.909 9.909 0 0 1 9.9 9.9 23.947 23.947 0 0 1-23.924 23.914zm3.857-19.68a4.751 4.751 0 0 0 2.044 3.16l1.066.71.915-1.372-1.066-.71a3.1 3.1 0 0 1-1.331-2.059 4.735 4.735 0 0 0-.3-1.007l.05-.271c.437-1.609 1.316-2.691 2.186-2.691a1.192 1.192 0 0 1 .515.13l.492.235.41-.361a6.6 6.6 0 1 1 0 9.89l-1.09 1.238a8.3 8.3 0 0 0 2.057 1.325l-2.687 1.613a17.058 17.058 0 0 1-8.768 2.428 6.606 6.606 0 0 1-6.6-6.6 2.473 2.473 0 0 1 .838-1.856l-1.09-1.237a4.147 4.147 0 0 0-.566.614 4.431 4.431 0 0 0-3.439-1.645H9.073a.825.825 0 0 1-.825-.825v-3.048a.259.259 0 0 1 .458-.139l1.694 2.54 6.51-2.441a3.3 3.3 0 0 1 4.112 1.616 5.62 5.62 0 0 0 5.054 3.123h1.142v-1.65h-1.142a3.974 3.974 0 0 1-2.969-1.318l1.071-1.071a3.1 3.1 0 0 1 5.248 1.682zm-18.7 3.184h2.341a2.792 2.792 0 0 1 2.651 1.91 4.14 4.14 0 0 0-.044.564 8.2 8.2 0 0 0 .482 2.75 18.98 18.98 0 0 1-3.121-3.245l-.247-.33h-2.066z" style="fill:#6f7071"/>
    </g>
</svg>
