<svg data-name="021---Brain-Profile" xmlns="http://www.w3.org/2000/svg" width="41.8" height="46.453" viewBox="0 0 41.8 46.453">
    <path d="M36.8 44.673a1.548 1.548 0 0 1-1.4 2.221H19.791a1.548 1.548 0 0 1-1.463-1.06c-.511-1.471-1.633-4.056-3.491-4.9a65.674 65.674 0 0 1-6.726 2.036 2.108 2.108 0 0 1-2.485-1.548c-.658-1.9.255-2.423-.039-3.561-.2-.79-.944-.983-1.533-1.4-.472-.333.379-1.424.379-1.424s-.906-.673-1.231-.968c-.341-.286.132-.766.565-1.672a2.028 2.028 0 0 0 .139-1.246C3.753 30.314 2.5 30 1.88 29.54.587 28.581.518 28.348 3.892 24.7a5.478 5.478 0 0 0 1.285-2.91c.062-.364.433-.759.426-1.2-.015-1.107-1.618-1.564-1.765-2.639-.116-.836.96-2.361 1.308-3.855a23.206 23.206 0 0 1 .735-2.7A13.98 13.98 0 0 1 8.815 6.6c1.9-2.013 4.528-2.879 7.191-3.5C25.744.854 30.628 2.085 36.178 6.451a11.984 11.984 0 0 1 4.35 6.262 22.5 22.5 0 0 1 .772 6.347c-.077 5.681-3.692 7.671-5.3 11.347a14.018 14.018 0 0 0-1.068 7.206 21.46 21.46 0 0 0 1.858 7.036z" transform="translate(-.281 -1.215)" style="fill:#fff"/>
    <path data-name="Shape" d="M43.216 44.652a21.459 21.459 0 0 1-1.858-7.036 14.018 14.018 0 0 1 1.068-7.206c1.61-3.677 5.225-5.666 5.3-11.347a22.5 22.5 0 0 0-.774-6.347A11.984 11.984 0 0 0 42.6 6.454c-4.016-3.16-7.694-4.667-13.1-4.414 4.2.232 7.367 1.726 10.783 4.412a11.985 11.985 0 0 1 4.35 6.262 22.5 22.5 0 0 1 .774 6.347c-.077 5.681-3.692 7.671-5.3 11.347a14.018 14.018 0 0 0-1.068 7.206 21.459 21.459 0 0 0 1.858 7.036l.008.023a1.548 1.548 0 0 1-1.397 2.227h2.322a1.548 1.548 0 0 0 1.393-2.221z" transform="translate(-6.708 -1.218)" style="fill:#ea5d6e"/>
    <path data-name="Shape" d="M38.925 19.154a4.092 4.092 0 0 1-1.06 2.748h-.008a5.748 5.748 0 0 1-2.926 4.025 7.018 7.018 0 0 1 1.022 2.059 1.575 1.575 0 0 1 .077.5 1.616 1.616 0 0 1-.975 1.478 1.282 1.282 0 0 1-.294.085v.008a1.653 1.653 0 0 1-1.6-.581 4.234 4.234 0 0 0-1.92-1.269c-.132-.046-.255-.085-.379-.132-2.129-.766-2.787-1.571-2.941-2.895h-.046a6.652 6.652 0 0 1-2.43-.457 4.077 4.077 0 0 1-6.945-1.335h-.008a5.534 5.534 0 0 1-6.339-8.5 2.448 2.448 0 0 1-.132-.79 2.411 2.411 0 0 1 1.935-2.369 3.273 3.273 0 0 1-.015-.286 3.126 3.126 0 0 1 3.119-3.127 3.03 3.03 0 0 1 1.355.31 4.571 4.571 0 0 1 3.931-2.236 4.523 4.523 0 0 1 3.011 1.138 2.4 2.4 0 0 1 4.257.348 6.13 6.13 0 0 1 .658-.039 5.775 5.775 0 0 1 5.751 5.294h.015a2.416 2.416 0 0 1 2.09 3.6 4.058 4.058 0 0 1 .8 2.423z" transform="translate(-2.541 -2.207)" style="fill:#fff"/>
    <path data-name="Shape" d="M42.557 16.731a2.416 2.416 0 0 0-2.09-3.6h-.015A5.775 5.775 0 0 0 34.7 7.837a6.131 6.131 0 0 0-.658.039 2.407 2.407 0 0 0-2.221-1.486 2.362 2.362 0 0 0-1.161.31 2.419 2.419 0 0 1 1.06 1.177 6.131 6.131 0 0 1 .658-.039 5.775 5.775 0 0 1 5.751 5.294h.015a2.416 2.416 0 0 1 2.09 3.6 4.085 4.085 0 0 1-.263 5.171h-.008a5.748 5.748 0 0 1-2.926 4.025 7.018 7.018 0 0 1 1.022 2.059 1.575 1.575 0 0 1 .077.5 1.6 1.6 0 0 1-.446 1.084 1.632 1.632 0 0 0 1.5.485v-.008a1.283 1.283 0 0 0 .294-.085 1.616 1.616 0 0 0 .975-1.478 1.575 1.575 0 0 0-.077-.5 7.018 7.018 0 0 0-1.022-2.059 5.748 5.748 0 0 0 2.926-4.026h.008a4.085 4.085 0 0 0 .263-5.171z" transform="translate(-6.97 -2.207)" style="fill:#ff4e63"/>
    <path data-name="Shape" d="M42.05 54.215h-3.514c-1.625-4.4-3.088-9.134-2.221-14 .325-1.842 1.014-3.808.194-5.813.124.046.248.085.379.132a4.234 4.234 0 0 1 1.92 1.269 1.653 1.653 0 0 0 1.6.581 20.7 20.7 0 0 1-.581 3.832c-.865 4.866.598 9.595 2.223 13.999z" transform="translate(-8.189 -8.536)" style="fill:#ea5d6e"/>
    <path data-name="Shape" d="M3.2 34.075c.325.294 1.231.968 1.231.968s-.851 1.091-.379 1.424c.588.418 1.331.611 1.533 1.4.294 1.138-.619 1.656.039 3.561a2.108 2.108 0 0 0 2.485 1.548c.271-.057.571-.13.884-.21a2.429 2.429 0 0 1-1.047-1.338c-.658-1.9.255-2.423-.039-3.561-.2-.79-.944-.983-1.533-1.4-.472-.333.379-1.424.379-1.424s-.906-.673-1.231-.968c-.551-.464 1.017-1.44.7-2.918-.155-.836-1.409-1.146-2.028-1.61-1.293-.96-1.362-1.192 2.013-4.838A5.478 5.478 0 0 0 7.5 21.8c.062-.364.433-.759.426-1.2-.016-1.108-1.619-1.564-1.766-2.64-.116-.836.96-2.361 1.308-3.855A23.206 23.206 0 0 1 8.2 11.4a13.98 13.98 0 0 1 2.934-4.8c1.9-2.013 4.528-2.879 7.191-3.5a39.963 39.963 0 0 1 6.892-1.06 33.247 33.247 0 0 0-9.211 1.066c-2.663.619-5.294 1.486-7.191 3.5a13.98 13.98 0 0 0-2.934 4.8 23.206 23.206 0 0 0-.735 2.7C4.8 15.6 3.722 17.124 3.838 17.96c.147 1.076 1.75 1.532 1.762 2.64.008.441-.364.836-.426 1.2a5.478 5.478 0 0 1-1.285 2.91C.518 28.355.587 28.587 1.88 29.547c.619.464 1.873.774 2.028 1.61.313 1.478-1.255 2.454-.7 2.918z" transform="translate(-.281 -1.222)" style="fill:#fff"/>
    <path data-name="Shape" d="M24.908 57.2c-.511-1.471-1.633-4.056-3.491-4.9-.483.169-1 .343-1.518.517a10.176 10.176 0 0 1 2.687 4.383 1.548 1.548 0 0 0 1.463 1.06h2.322a1.548 1.548 0 0 1-1.463-1.06z" transform="translate(-4.538 -12.581)" style="fill:#fff"/>
    <path data-name="Shape" d="m9.858 6.725 1.059 1.129A13.056 13.056 0 0 0 7.8 12.73l-1.453-.536a14.571 14.571 0 0 1 3.511-5.469z" transform="translate(-1.477 -2.283)" style="fill:#fff"/>
    <g data-name="Group 16984">
        <path data-name="Shape" d="M8.84 11.091a.774.774 0 0 1-.008-1.548h.008a.774.774 0 0 1 0 1.548z" transform="translate(-1.864 -2.919)" style="fill:#6f7e8e"/>
        <path data-name="Shape" d="M4.192 21.431A4.706 4.706 0 0 1 3.1 23.948C.67 26.571-.024 27.474.061 28.409a2.245 2.245 0 0 0 1.129 1.525A5.631 5.631 0 0 0 2 30.4c.333.17.89.456.929.66a1.323 1.323 0 0 1-.085.778 9.552 9.552 0 0 1-.336.634c-.3.534-.757 1.342-.043 1.944.166.148.453.373.714.573a1.952 1.952 0 0 0-.249 1.122 1.108 1.108 0 0 0 .454.752 5.662 5.662 0 0 0 .542.334c.454.26.631.381.692.619a1.646 1.646 0 0 1-.065.877 4.383 4.383 0 0 0 .124 2.76 2.889 2.889 0 0 0 2.734 2.114 3.114 3.114 0 0 0 .629-.067 62.681 62.681 0 0 0 6.5-1.948c1.074.632 2.095 2.171 2.831 4.31a2.332 2.332 0 0 0 2.2 1.577h15.606a2.322 2.322 0 0 0 2.078-3.356 21.226 21.226 0 0 1-1.78-6.795 13.116 13.116 0 0 1 1.006-6.8 16.906 16.906 0 0 1 2.046-3.244c1.531-2.07 3.267-4.412 3.323-8.4a23.237 23.237 0 0 0-.807-6.575 12.832 12.832 0 0 0-4.616-6.657C30.327.813 25.071-.067 15.6 2.118a15.169 15.169 0 0 0-7.165 3.31.753.753 0 0 0-.012 1.118.8.8 0 0 0 1.07.011 13.687 13.687 0 0 1 6.456-2.931c10.1-2.331 14.5-.749 19.521 3.2a11.166 11.166 0 0 1 4.082 5.861 21.673 21.673 0 0 1 .749 6.13c-.049 3.49-1.492 5.44-3.019 7.508a18.326 18.326 0 0 0-2.22 3.547 14.659 14.659 0 0 0-1.126 7.6 22.652 22.652 0 0 0 1.935 7.307.774.774 0 0 1-.7 1.106h-.72c-1.44-3.958-2.817-8.51-2-13.094.057-.329.128-.662.2-1a16.339 16.339 0 0 0 .374-2.43 2.377 2.377 0 0 0 1.292-2.111 2.3 2.3 0 0 0-.118-.732 8.365 8.365 0 0 0-.683-1.575 6.528 6.528 0 0 0 2.571-3.933 4.789 4.789 0 0 0 .429-5.563 3.165 3.165 0 0 0-2.3-4.239 6.586 6.586 0 0 0-6.434-5.376c-.077 0-.146.01-.221.012a3.149 3.149 0 0 0-4.821-.6 5.317 5.317 0 0 0-2.889-.859 5.372 5.372 0 0 0-4.225 2.081 3.856 3.856 0 0 0-4.919 3.474 3.129 3.129 0 0 0-1.871 3.6 6.282 6.282 0 0 0 6.734 9.56 4.849 4.849 0 0 0 7.6 1.283 7.436 7.436 0 0 0 1.616.315c.334 1.238 1.22 2.049 2.966 2.742a7.7 7.7 0 0 1-.132 4.045c-.074.351-.146.7-.207 1.042-.844 4.745.444 9.339 1.879 13.364h-9.724a.785.785 0 0 1-.737-.536 11.409 11.409 0 0 0-2.541-4.412l.578-.2c.572-.2 1.006-.353 1.22-.421 3.311-1.042 4.967-2.55 4.921-4.483a.754.754 0 0 0-.792-.755.774.774 0 0 0-.755.792c.019.8-.632 1.961-3.84 2.971-.227.071-.674.228-1.267.437-.555.2-1.238.437-1.993.7a64.129 64.129 0 0 1-6.633 2.009 1.372 1.372 0 0 1-1.59-1.039 2.846 2.846 0 0 1-.077-1.9 3.108 3.108 0 0 0 .059-1.605A2.554 2.554 0 0 0 4.7 35.86l-.165-.1a2.805 2.805 0 0 1 .3-.481.774.774 0 0 0-.149-1.1c-.186-.138-.627-.47-.944-.724a6.89 6.89 0 0 1 .125-.225c.118-.21.255-.452.387-.729a2.864 2.864 0 0 0 .208-1.73c-.18-.95-1.084-1.413-1.746-1.751a4.519 4.519 0 0 1-.584-.33 4.3 4.3 0 0 1-.512-.42c.013-.447 1.716-2.284 2.632-3.271a6.192 6.192 0 0 0 1.482-3.314 1.955 1.955 0 0 1 .118-.259 2.286 2.286 0 0 0 .317-1.077 2.7 2.7 0 0 0-1.149-1.936c-.31-.286-.607-.557-.64-.8a5.01 5.01 0 0 1 .52-1.472 11.791 11.791 0 0 0 .778-2.1l.062-.27a19.383 19.383 0 0 1 .645-2.345.774.774 0 1 0-1.455-.526 20.426 20.426 0 0 0-.7 2.532l-.062.268a10.542 10.542 0 0 1-.683 1.814 4.652 4.652 0 0 0-.637 2.322 2.96 2.96 0 0 0 1.126 1.725c.379.348.628.592.63.814a1.434 1.434 0 0 1-.149.359 2.417 2.417 0 0 0-.266.7zm22.215 3.211a7.345 7.345 0 0 0 1.187-.248.774.774 0 0 0-.454-1.48 5.916 5.916 0 0 1-1.336.246 5.7 5.7 0 0 1-2.565-.387.816.816 0 0 0-.868.216 3.314 3.314 0 0 1-5.341-3.876.774.774 0 0 0-1.327-.8 4.81 4.81 0 0 0-.443 1 1.167 1.167 0 0 1-1.1-1.139v-.019a.766.766 0 0 0-.774-.764.782.782 0 0 0-.774.783 2.691 2.691 0 0 0 2.4 2.67 4.861 4.861 0 0 0 .07.774A4.732 4.732 0 0 1 9.73 15.14a3.151 3.151 0 0 0 .577.459.774.774 0 1 0 .8-1.327 1.635 1.635 0 0 1-.7-.868 1.606 1.606 0 0 1-.091-.532 1.634 1.634 0 0 1 1.625-1.635 1.609 1.609 0 0 1 1.3.656.774.774 0 0 0 1.242-.924 3.126 3.126 0 0 0-2.2-1.238 2.353 2.353 0 0 1 2.3-1.863 2.29 2.29 0 0 1 .282.032c-.058.159-.119.318-.162.483a.774.774 0 0 0 1.5.387 3.78 3.78 0 0 1 .4-.96 3.822 3.822 0 0 1 3.257-1.867 3.757 3.757 0 0 1 2.05.619 3.146 3.146 0 0 0-.181 1.014.774.774 0 1 0 1.548 0 1.628 1.628 0 1 1 3.256 0 .774.774 0 0 0 1.548 0c0-.06-.015-.116-.018-.176a5.025 5.025 0 0 1 4.584 3.875 3.15 3.15 0 0 0-1 .5.774.774 0 1 0 .929 1.238 1.632 1.632 0 0 1 2.395 2.111 1.661 1.661 0 0 1-.735.677.774.774 0 1 0 .658 1.4 3.185 3.185 0 0 0 .579-.361 3.305 3.305 0 0 1-.659 3.306l-.014.015a3.345 3.345 0 0 1-3.952.725 3.133 3.133 0 0 1-.375-.232 2.637 2.637 0 0 0 .207-2.723.774.774 0 0 0-1.386.691 1.15 1.15 0 0 1-.373 1.46 1.166 1.166 0 0 1-1.68-.428.774.774 0 1 0-1.382.694 2.665 2.665 0 0 0 3.383 1.3 4.644 4.644 0 0 0 .907.619 4.774 4.774 0 0 0 3.576.33 4.935 4.935 0 0 1-3.188 1.955.774.774 0 0 0 .122 1.539.749.749 0 0 0 .124-.01 6.367 6.367 0 0 0 1.372-.4 6.914 6.914 0 0 1 .577 1.33.774.774 0 0 1 .04.249.835.835 0 0 1-.507.768.872.872 0 0 1-1-.269A4.954 4.954 0 0 0 29 26.254c-1.673-.565-2.318-1.064-2.589-1.609zm2.535 8.158c.057-.327.127-.659.2-.994a11.681 11.681 0 0 0 .351-3.586 3.224 3.224 0 0 1 .594.542 2.482 2.482 0 0 0 1.379.825 17.48 17.48 0 0 1-.324 1.9c-.077.353-.146.7-.207 1.047-.848 4.745.44 9.338 1.876 13.363h-1.872c-1.44-3.959-2.817-8.511-2-13.094z" transform="translate(-.054 -.986)" style="fill:#6f7071"/>
        <path data-name="Shape" d="M33.637 18.306a.774.774 0 1 0-1.52-.291 3.088 3.088 0 0 1-1.282 1.965 3.161 3.161 0 0 1-4.075-.461.774.774 0 1 0-1.149 1.038 4.661 4.661 0 0 0 2.477 1.43 2.3 2.3 0 0 1-1.884.972.774.774 0 0 0 0 1.548 3.839 3.839 0 0 0 3.61-2.482 4.671 4.671 0 0 0 3.822-3.715z" transform="translate(-5.784 -4.689)" style="fill:#ea5d6e"/>
        <path data-name="Shape" d="M25.59 14.164a.774.774 0 0 0-.774-.774 3.565 3.565 0 0 0-3.561 3.561.774.774 0 0 0 1.548 0 2.013 2.013 0 0 1 2.013-2.013.774.774 0 0 0 .774-.774z" transform="translate(-4.845 -3.789)" style="fill:#ea5d6e"/>
    </g>
</svg>
