<svg xmlns="http://www.w3.org/2000/svg" width="44.187" height="44.187" viewBox="0 0 44.187 44.187">
    <g data-name="946322">
        <path data-name="Path 411" d="M285.46 235.222a6.414 6.414 0 1 0 0-9.614 1.729 1.729 0 0 0-.753-.182c-1.137 0-2.119 1.165-2.576 2.851l-.875 1.07 1.115 1.222z" transform="translate(-256.2 -204.045)" style="fill:#f37b89"/>
        <path data-name="Path 412" d="M96 312v2.138a.713.713 0 0 0 .713.713h1.425a17.219 17.219 0 0 0 5.232 4.619l1.9 1.083-.457-.277a6.42 6.42 0 0 1-3.087-5.444A2.851 2.851 0 0 0 98.87 312z" transform="translate(-87.448 -284.205)" style="fill:#f37b89"/>
        <g data-name="Group 484">
            <path data-name="Path 413" d="m93.567 261.7-.393-.614a3.38 3.38 0 0 1-1.458-2.255A3.391 3.391 0 0 0 88.371 256a3.39 3.39 0 0 0-2.4.993l-1.341 1.329-.029.028-.022.019c.026.053.076.087.1.139a3.424 3.424 0 0 0 3 1.768h.435a4.075 4.075 0 0 1-3.7-2.246 3.566 3.566 0 0 0-4.471-1.8l-5.1 1.911-1.15-1.725a.929.929 0 0 0-1.7.515v2.635a1.425 1.425 0 0 0 1.425 1.425h3.448a3.126 3.126 0 0 1 2.308 1.017 2.7 2.7 0 0 1 .659 1.834 6.391 6.391 0 0 0 6.3 6.414 15.442 15.442 0 0 0 8.059-2.2l3.46-2.076 1.164-.713-3.975-.894z" transform="translate(-65.586 -233.194)" style="fill:#fff"/>
            <path data-name="Path 414" d="M213.376 258.358a4.582 4.582 0 0 0 3.727 1.918h4.058l-1.077-2.589-.061-.084a3.381 3.381 0 0 0-5.27-.611z" transform="translate(-194.367 -233.194)" style="fill:#f37b89"/>
        </g>
        <path data-name="Path 415" d="m212.276 30.094-.206-.309a7.256 7.256 0 0 1-1.219-4.027 10.128 10.128 0 0 1 .819-3.989l.5-1.168a10.122 10.122 0 0 0 .819-3.988V8h-2.851v8.3a10.13 10.13 0 0 1-1.069 4.528A10.13 10.13 0 0 0 208 25.357a13.5 13.5 0 0 0 .965 5.011l.46 1.151z" transform="translate(-189.47 -7.288)" style="fill:#f37b89"/>
        <path data-name="Path 416" d="M34.21 12.116a7.135 7.135 0 0 1-7.127-7.127V0H17.1v4.989a7.135 7.135 0 0 1-7.127 7.127A9.989 9.989 0 0 0 0 22.094a22.094 22.094 0 0 0 44.187 0 9.989 9.989 0 0 0-9.977-9.978zM22.094 42.762A20.692 20.692 0 0 1 1.425 22.094a8.562 8.562 0 0 1 8.552-8.552 8.562 8.562 0 0 0 8.553-8.553V1.425h1.425v1.426h1.425V1.425h1.425v7.9a9.361 9.361 0 0 1-.76 3.707l-.5 1.169a10.774 10.774 0 0 0-.877 4.269 7.93 7.93 0 0 0 .971 3.805 4.036 4.036 0 0 0-1.4.733l-.076-.192a12.718 12.718 0 0 1-.915-4.747 9.453 9.453 0 0 1 .994-4.21 10.906 10.906 0 0 0 1.144-4.847V4.276h-1.43v4.737a9.453 9.453 0 0 1-.994 4.21 10.906 10.906 0 0 0-1.144 4.847 14.127 14.127 0 0 0 1.016 5.275l.174.435a4.266 4.266 0 0 0-4.9-1.413l-4.564 1.712-.836-1.254a1.641 1.641 0 0 0-3.007.91v2.635a2.141 2.141 0 0 0 2.139 2.138v1.425a1.427 1.427 0 0 0 1.425 1.425h1.073a17.821 17.821 0 0 0 5.231 4.525l.936.535a7.082 7.082 0 0 0 4.164 1.355 16.4 16.4 0 0 0 5.6-1 15.7 15.7 0 0 0 2.707-1.3l3.439-2.064a7.124 7.124 0 1 0-3.3-12.655 2.293 2.293 0 0 0-.613-.084c-1.224 0-2.3.932-2.956 2.507a4.066 4.066 0 0 0-2.338-1.043l-.021-.031a6.519 6.519 0 0 1-1.1-3.631 9.361 9.361 0 0 1 .76-3.707l.5-1.169a10.774 10.774 0 0 0 .877-4.269v-7.9h1.425v3.562a8.562 8.562 0 0 0 8.552 8.552 8.562 8.562 0 0 1 8.552 8.552 20.692 20.692 0 0 1-20.659 20.669zm3.333-17.005a4.105 4.105 0 0 0 1.766 2.73l.921.614.79-1.186-.921-.614a2.674 2.674 0 0 1-1.15-1.779 4.091 4.091 0 0 0-.257-.87l.043-.234c.378-1.39 1.137-2.325 1.889-2.325a1.03 1.03 0 0 1 .445.112l.425.2.354-.312a5.7 5.7 0 1 1 0 8.546l-.944 1.069a7.168 7.168 0 0 0 1.777 1.145l-2.321 1.397a14.739 14.739 0 0 1-7.576 2.1 5.708 5.708 0 0 1-5.7-5.7 2.137 2.137 0 0 1 .724-1.6l-.942-1.069a3.583 3.583 0 0 0-.489.531 3.829 3.829 0 0 0-2.972-1.422H7.84a.713.713 0 0 1-.713-.713v-2.642a.224.224 0 0 1 .4-.12l1.464 2.2 5.625-2.11a2.852 2.852 0 0 1 3.554 1.4 4.856 4.856 0 0 0 4.367 2.7h.987V26.37h-.987a3.434 3.434 0 0 1-2.566-1.141l.925-.925a2.677 2.677 0 0 1 4.535 1.453zM9.265 28.508h2.023a2.413 2.413 0 0 1 2.291 1.651 3.577 3.577 0 0 0-.038.487 7.083 7.083 0 0 0 .416 2.376 16.4 16.4 0 0 1-2.7-2.8l-.214-.285H9.265z" style="fill:#6f7e8e"/>
    </g>
</svg>
