<svg xmlns="http://www.w3.org/2000/svg" width="48" height="48" viewBox="0 0 48 48">
    <g data-name="Group 17870" transform="translate(-1383.354 -1370)">
        <g data-name="Group 16985">
            <path data-name="Path 11820" d="M43.535 54.095V31.824a23.128 23.128 0 0 0-11.481-19.982L24.606 7.5H7.863a.363.363 0 0 0-.363.363v9.647a14.164 14.164 0 0 0 7.829 11.862c8.1 4.182 10.274 15.073 10.457 24.721h17.749z" transform="translate(1376.557 1363.202)" style="fill:#fff"/>
        </g>
        <path data-name="Path 11821" d="M158.088 11.842 150.64 7.5h-4.068l8.956 5.279a23.128 23.128 0 0 1 11.481 19.981v21.335h2.561V31.824a23.128 23.128 0 0 0-11.481-19.981z" transform="translate(1250.523 1363.202)" style="fill:#ea5d6e"/>
        <path data-name="Path 11822" d="m25.622 21.319-13.8-13.8-3.88-.007a.363.363 0 0 0-.364.37l.012.648L23 23.94a3.912 3.912 0 0 1 1.06 3.717 2.531 2.531 0 0 0 .7 2.463 2.572 2.572 0 0 0 3.339.159 2.536 2.536 0 0 0 .929-2.377.489.489 0 0 1 .556-.556 2.536 2.536 0 0 0 2.375-.927 2.572 2.572 0 0 0-.153-3.338 2.532 2.532 0 0 0-2.471-.7 3.9 3.9 0 0 1-3.713-1.062z" transform="translate(1376.49 1363.196)" style="fill:#f6f6f6"/>
        <g data-name="Group 16986">
            <path data-name="Path 11823" d="M226.369 236.152a.489.489 0 0 0-.556.556 2.554 2.554 0 0 1-.007.821c.032-.024.064-.045.095-.071a2.534 2.534 0 0 0 .834-1.277 2.536 2.536 0 0 1-.366-.029z" transform="translate(1178.717 1155.992)" style="fill:#ea5d6e"/>
            <path data-name="Path 11824" d="M47.747 23.1a2.532 2.532 0 0 0-2.471-.7 3.9 3.9 0 0 1-3.712-1.062l-13.8-13.8H25.17l15.407 15.407a3.9 3.9 0 0 0 3.712 1.062 2.533 2.533 0 0 1 3.134 2.893 2.576 2.576 0 0 0 .453-.429 2.55 2.55 0 0 0-.129-3.367z" transform="translate(1360.548 1363.173)" style="fill:#ea5d6e"/>
        </g>
        <path data-name="Path 11825" d="M210.383 214.788a13.285 13.285 0 0 0 6.9-7.961 2.617 2.617 0 0 1 .948-1.278l.051-.036a2.657 2.657 0 0 1 4.1 1.675 7.852 7.852 0 0 1-3 7.521 1.722 1.722 0 0 0-.66 1.352v17.056h-4.169v-12.9a1.727 1.727 0 0 0-1.866-1.711c-.234.016-1.545.009-1.759-.02a1.954 1.954 0 0 1-.55-3.695z" transform="translate(1193.699 1184.181)" style="fill:#f6f6f6"/>
        <path data-name="Path 11826" d="M292.1 207.2a2.665 2.665 0 0 0-3.733-1.891 2.654 2.654 0 0 1 1.491 1.891 7.852 7.852 0 0 1-3 7.521 1.722 1.722 0 0 0-.66 1.352v17.056h2.242v-17.057a1.722 1.722 0 0 1 .66-1.352 7.852 7.852 0 0 0 3-7.52z" transform="translate(1123.993 1184.169)" style="fill:#ea5d6e"/>
        <circle data-name="Ellipse 100" cx="6.916" cy="6.916" r="6.916" transform="translate(1416.818 1399.746)" style="fill:#fff"/>
        <path data-name="Path 11827" d="M419.4 317.286a6.956 6.956 0 0 0-1.172.1 6.915 6.915 0 0 1 0 13.631 6.916 6.916 0 1 0 1.172-13.731z" transform="translate(1004.334 1082.46)" style="fill:#ea5d6e"/>
        <path data-name="Path 11828" d="M395.084 350.2h-1.709a.4.4 0 0 1-.4-.4v-1.709a.4.4 0 0 0-.4-.4h-2.294a.4.4 0 0 0-.4.4v1.709a.4.4 0 0 1-.4.4h-1.709a.4.4 0 0 0-.4.4v2.3a.4.4 0 0 0 .4.4h1.709a.4.4 0 0 1 .4.4v1.709a.4.4 0 0 0 .4.4h2.294a.4.4 0 0 0 .4-.4V353.7a.4.4 0 0 1 .4-.4h1.709a.4.4 0 0 0 .4-.4v-2.3a.4.4 0 0 0-.4-.4z" transform="translate(1032.313 1054.912)" style="fill:#f6f6f6"/>
        <g data-name="Group 16987">
            <path data-name="Path 11829" d="M55.546 11.287a.7.7 0 1 0 .995-.994l-10-10a.7.7 0 1 0-.994.994z" transform="translate(1342.266 1369.924)" style="fill:#6f7071"/>
            <path data-name="Path 11830" d="M15.823 27.475a3.215 3.215 0 0 1 .877 3.045 3.242 3.242 0 1 0 6.373.589 3.242 3.242 0 1 0-.6-6.372 3.2 3.2 0 0 1-3.039-.878l-1.814-1.818a.7.7 0 0 0-.994.994l1.818 1.818a4.615 4.615 0 0 0 4.385 1.247 1.819 1.819 0 0 1 1.788.507 1.852 1.852 0 0 1 .095 2.432 1.83 1.83 0 0 1-1.7.65 1.192 1.192 0 0 0-1.358 1.358A1.828 1.828 0 0 1 21 32.75a1.852 1.852 0 0 1-2.433-.1 1.819 1.819 0 0 1-.5-1.782 4.626 4.626 0 0 0-1.244-4.389L1.4 11.066a.7.7 0 0 0-.994.994z" transform="translate(1383.171 1360.158)" style="fill:#6f7071"/>
            <path data-name="Path 11831" d="M216.269 200.264a3.366 3.366 0 0 0-2.06-2.467 3.307 3.307 0 0 0-3.138.355l-.058.041a3.3 3.3 0 0 0-1.2 1.623 12.562 12.562 0 0 1-6.542 7.553 2.617 2.617 0 0 0-1.476 2.825 2.576 2.576 0 0 0 2.236 2.2c.284.038 1.657.041 1.9.024a1.05 1.05 0 0 1 .8.279.989.989 0 0 1 .317.73v12.9a.7.7 0 0 0 1.406 0v-12.9a2.381 2.381 0 0 0-.763-1.758 2.473 2.473 0 0 0-1.854-.655c-.206.014-1.425.006-1.617-.015a1.184 1.184 0 0 1-1.033-1.026 1.225 1.225 0 0 1 .693-1.338 13.94 13.94 0 0 0 7.268-8.37 1.926 1.926 0 0 1 .693-.934l.043-.031a1.88 1.88 0 0 1 1.807-.2 1.965 1.965 0 0 1 1.2 1.438 7.107 7.107 0 0 1-2.75 6.83 2.412 2.412 0 0 0-.928 1.9v17.056a.7.7 0 0 0 1.406 0v-17.049a1.014 1.014 0 0 1 .392-.8 8.522 8.522 0 0 0 3.258-8.211z" transform="translate(1200.51 1190.965)" style="fill:#6f7071"/>
            <path data-name="Path 11832" d="M183.433 382.211a.7.7 0 0 0-1.37.317 52.139 52.139 0 0 1 1.2 10.667.7.7 0 0 0 .7.69h.014a.7.7 0 0 0 .69-.716 53.543 53.543 0 0 0-1.234-10.958z" transform="translate(1218.376 1024.115)" style="fill:#6f7071"/>
            <path data-name="Path 11833" d="M17.723 130.4c-1.787-5.638-4.771-9.569-8.867-11.684a13.39 13.39 0 0 1-6.5-7.028 12.727 12.727 0 0 1-.95-4.21.7.7 0 0 0-1.406 0 13.84 13.84 0 0 0 1.028 4.675 14.926 14.926 0 0 0 7.181 7.812c3.752 1.937 6.5 5.591 8.172 10.86a.7.7 0 0 0 1.34-.425z" transform="translate(1383.353 1273.235)" style="fill:#6f7071"/>
            <path data-name="Path 11834" d="M388.286 342.7h-1.41v-1.41a1.108 1.108 0 0 0-1.107-1.107h-2.294a1.108 1.108 0 0 0-1.107 1.107v1.41h-1.41a1.108 1.108 0 0 0-1.107 1.107v2.293a1.108 1.108 0 0 0 1.107 1.107h1.41v1.41a1.108 1.108 0 0 0 1.107 1.107h2.294a1.108 1.108 0 0 0 1.107-1.107V347.2h1.41a1.108 1.108 0 0 0 1.107-1.107V343.8a1.108 1.108 0 0 0-1.107-1.1zm-.3 3.1h-1.41a1.108 1.108 0 0 0-1.107 1.107v1.41h-1.694V346.9a1.108 1.108 0 0 0-1.107-1.107h-1.41V344.1h1.41a1.108 1.108 0 0 0 1.107-1.1v-1.41h1.694V343a1.108 1.108 0 0 0 1.107 1.107h1.41z" transform="translate(1039.112 1061.711)" style="fill:#6f7071"/>
            <path data-name="Path 11835" d="M205.741 29.042a7.577 7.577 0 0 0-2.94.59v-4.607a23.831 23.831 0 0 0-11.83-20.589L183.524.1a.7.7 0 0 0-.708 1.215l7.448 4.341A22.425 22.425 0 0 1 201.4 25.025v5.381a7.613 7.613 0 0 0 0 12.51V47.3a.7.7 0 0 0 1.406 0v-3.609a7.619 7.619 0 0 0 6.629-.363.7.7 0 0 0-.682-1.23 6.213 6.213 0 1 1 3.205-5.436 6.152 6.152 0 0 1-1.286 3.783.7.7 0 0 0 1.115.857 7.548 7.548 0 0 0 1.577-4.64 7.628 7.628 0 0 0-7.623-7.62z" transform="translate(1217.994 1370)" style="fill:#6f7071"/>
        </g>
    </g>
</svg>
